<svg width="24" height="24" viewBox="0 0 24 24" fill="none" xmlns="http://www.w3.org/2000/svg">
<path d="M2.71429 10.5714H13V12H2.71429V10.5714ZM1 7H9.57143V8.42857H1V7Z" fill="#75ADEA" fill-opacity="0.7"/>
<path d="M22.932 11.6768L20.4135 5.95008C20.3489 5.80288 20.2413 5.67743 20.1042 5.5893C19.967 5.50116 19.8063 5.45422 19.642 5.45431H17.1235V3.8181C17.1235 3.60113 17.0351 3.39304 16.8776 3.23962C16.7202 3.08619 16.5067 3 16.284 3H2.85208V4.63621H15.4445V14.9083C15.062 15.1248 14.7272 15.4129 14.4595 15.7561C14.1918 16.0992 13.9965 16.4906 13.8847 16.9077H8.60934C8.40502 16.1366 7.91909 15.4645 7.24264 15.0174C6.56619 14.5704 5.74566 14.3792 4.93487 14.4795C4.12407 14.5799 3.37866 14.965 2.83837 15.5626C2.29808 16.1602 2 16.9294 2 17.7258C2 18.5223 2.29808 19.2915 2.83837 19.8891C3.37866 20.4867 4.12407 20.8718 4.93487 20.9722C5.74566 21.0725 6.56619 20.8813 7.24264 20.4343C7.91909 19.9872 8.40502 19.3151 8.60934 18.544H13.8847C14.0674 19.2461 14.485 19.8688 15.0716 20.3136C15.6582 20.7585 16.3803 21 17.1235 21C17.8668 21 18.5888 20.7585 19.1754 20.3136C19.762 19.8688 20.1797 19.2461 20.3623 18.544H22.1605C22.3832 18.544 22.5967 18.4578 22.7541 18.3043C22.9116 18.1509 23 17.9428 23 17.7258V11.9991C23 11.8883 22.9769 11.7786 22.932 11.6768ZM5.37057 19.3621C5.03849 19.3621 4.71388 19.2661 4.43777 19.0863C4.16166 18.9065 3.94646 18.651 3.81938 18.352C3.6923 18.053 3.65905 17.724 3.72383 17.4066C3.78862 17.0892 3.94853 16.7977 4.18334 16.5689C4.41815 16.34 4.71732 16.1842 5.04301 16.1211C5.3687 16.0579 5.70629 16.0904 6.01309 16.2142C6.31988 16.338 6.58211 16.5477 6.7666 16.8168C6.95109 17.0859 7.04956 17.4022 7.04956 17.7258C7.04911 18.1597 6.87208 18.5756 6.5573 18.8823C6.24253 19.1891 5.81573 19.3616 5.37057 19.3621ZM17.1235 7.09051H19.0879L20.8878 11.181H17.1235V7.09051ZM17.1235 19.3621C16.7914 19.3621 16.4668 19.2661 16.1907 19.0863C15.9146 18.9065 15.6994 18.651 15.5723 18.352C15.4453 18.053 15.412 17.724 15.4768 17.4066C15.5416 17.0892 15.7015 16.7977 15.9363 16.5689C16.1711 16.34 16.4703 16.1842 16.796 16.1211C17.1217 16.0579 17.4592 16.0904 17.766 16.2142C18.0728 16.338 18.3351 16.5477 18.5196 16.8168C18.704 17.0859 18.8025 17.4022 18.8025 17.7258C18.8021 18.1597 18.625 18.5756 18.3103 18.8823C17.9955 19.1891 17.5687 19.3616 17.1235 19.3621ZM21.321 16.9077H20.3623C20.1774 16.207 19.7591 15.5858 19.1729 15.1417C18.5868 14.6975 17.866 14.4555 17.1235 14.4534V12.8172H21.321V16.9077Z" fill="#75ADEA" fill-opacity="0.7"/>
</svg>
