<svg width="24" height="24" viewBox="0 0 24 24" fill="none" xmlns="http://www.w3.org/2000/svg">
<g clip-path="url(#clip0_1638_88605)">
<path d="M7.37109 15.0647C7.53592 16.9018 9.05613 18.2055 11.3704 18.3741V19.7142H12.532V18.3741C15.0601 18.1769 16.6282 16.7894 16.6282 14.7374C16.6282 12.9852 15.5736 11.9713 13.3361 11.4004L12.532 11.1943V7.00438C13.7816 7.1256 14.6247 7.79124 14.8374 8.78528H16.4745C16.2897 7.02201 14.7594 5.75687 12.532 5.61691V4.28564H11.3704V5.64446C9.21094 5.89793 7.72859 7.26666 7.72859 9.1225C7.72859 10.7249 8.80444 11.8589 10.6922 12.3372L11.3715 12.5157V16.958C10.0919 16.7707 9.21094 16.0764 8.99822 15.0647H7.37109ZM11.1477 10.8373C9.98608 10.5474 9.36574 9.92809 9.36574 9.05638C9.36574 8.01605 10.1498 7.24793 11.3704 7.04185V10.8935L11.1477 10.8373ZM12.9196 12.9003C14.3529 13.2563 14.9822 13.8469 14.9822 14.8498C14.9822 16.0587 14.0623 16.8643 12.532 16.9867V12.8044L12.9196 12.8992V12.9003Z" fill="white"/>
<rect x="1.9502" y="1.9502" width="20.1" height="20.1" rx="1.25" stroke="white" stroke-width="1.5"/>
</g>
<defs>
<clipPath id="clip0_1638_88605">
<rect width="24" height="24" fill="white"/>
</clipPath>
</defs>
</svg>
