<svg width="24" height="24" viewBox="0 0 24 24" fill="none" xmlns="http://www.w3.org/2000/svg">
<path d="M21.4286 3H2.57143C2.15466 3 1.75496 3.18964 1.46026 3.52721C1.16556 3.86477 1 4.32261 1 4.8V19.2C1 19.6774 1.16556 20.1352 1.46026 20.4728C1.75496 20.8104 2.15466 21 2.57143 21H21.4286C21.8453 21 22.245 20.8104 22.5397 20.4728C22.8344 20.1352 23 19.6774 23 19.2V4.8C23 4.32261 22.8344 3.86477 22.5397 3.52721C22.245 3.18964 21.8453 3 21.4286 3ZM21.4286 4.8V7.5H2.57143V4.8H21.4286ZM2.57143 19.2V9.3H21.4286V19.2H2.57143Z" fill="#75ADEA"/>
<path d="M22 4.8V4.22857H21.4286H2.57143H2V4.8V7.5V8.07143H2.57143H21.4286H22V7.5V4.8ZM22.1093 3.90301L22.5397 3.52721L22.1093 3.90301C22.3068 4.12932 22.4286 4.45099 22.4286 4.8V19.2C22.4286 19.549 22.3068 19.8707 22.1093 20.097C21.9139 20.3208 21.6668 20.4286 21.4286 20.4286H2.57143C2.33319 20.4286 2.08614 20.3208 1.89073 20.097C1.69316 19.8707 1.57143 19.549 1.57143 19.2V4.8C1.57143 4.45099 1.69316 4.12932 1.89073 3.90301C2.08614 3.67918 2.33319 3.57143 2.57143 3.57143H21.4286C21.6668 3.57143 21.9139 3.67918 22.1093 3.90301ZM2 19.2V19.7714H2.57143H21.4286H22V19.2V9.3V8.72857H21.4286H2.57143H2V9.3V19.2Z" stroke="#75ADEA" stroke-opacity="0.8" stroke-width="1.14286"/>
<path d="M4 16H11.5V17.5H4V16Z" fill="#75ADEA" fill-opacity="0.7"/>
</svg>
