<svg width="24" height="24" viewBox="0 0 24 24" fill="none" xmlns="http://www.w3.org/2000/svg">
<rect x="2.85" y="1.85" width="18.3" height="20.3" rx="1.15" stroke="#75ADEA" stroke-opacity="0.7" stroke-width="1.7"/>
<path fill-rule="evenodd" clip-rule="evenodd" d="M15.9249 9.625C15.9249 11.7927 14.1676 13.55 11.9999 13.55C9.83218 13.55 8.0749 11.7927 8.0749 9.625C8.0749 7.45728 9.83218 5.7 11.9999 5.7C14.1676 5.7 15.9249 7.45728 15.9249 9.625ZM14.3712 14.7272C16.2928 13.8327 17.6249 11.8844 17.6249 9.625C17.6249 6.5184 15.1065 4 11.9999 4C8.8933 4 6.3749 6.5184 6.3749 9.625C6.3749 11.8844 7.707 13.8327 9.62865 14.7272C6.30882 15.6665 3.8374 18.5275 3.8374 22H5.5374C5.5374 18.8043 8.36542 16.1 11.9999 16.1C15.6344 16.1 18.4624 18.8043 18.4624 22H20.1624C20.1624 18.5275 17.691 15.6665 14.3712 14.7272Z" fill="#75ADEA" fill-opacity="0.7"/>
</svg>
