<svg width="24" height="24" viewBox="0 0 24 24" fill="none" xmlns="http://www.w3.org/2000/svg">
<path d="M19.2 21H19.7V20.5V16.5H20.5V20.5C20.5 20.7327 20.3897 20.979 20.1527 21.1765C19.913 21.3763 19.5713 21.5 19.2 21.5H4.8C4.42873 21.5 4.08701 21.3763 3.8473 21.1765L3.52721 21.5607L3.8473 21.1765C3.61025 20.979 3.5 20.7327 3.5 20.5V2.5C3.5 2.26726 3.61025 2.02099 3.8473 1.82345C4.08701 1.62369 4.42873 1.5 4.8 1.5H13.3V2H4.8H4.3V2.5V20.5V21H4.8H19.2Z" stroke="#75ADEA" stroke-opacity="0.7"/>
<path d="M23.655 2.81803L21.18 0.343029C20.9557 0.123156 20.6541 0 20.34 0C20.0259 0 19.7243 0.123156 19.5 0.343029L9 10.843V14.998H13.1475L23.6475 4.49803C23.8674 4.27371 23.9905 3.97213 23.9905 3.65803C23.9905 3.34393 23.8674 3.04234 23.6475 2.81803H23.655ZM12.525 13.498H10.5V11.473L17.58 4.38553L19.6125 6.41803L12.525 13.498ZM20.67 5.36053L18.6375 3.32803L20.34 1.62553L22.3725 3.65803L20.67 5.36053Z" fill="#75ADEA" fill-opacity="0.7"/>
</svg>
