<svg width="24" height="24" viewBox="0 0 24 24" fill="none" xmlns="http://www.w3.org/2000/svg">
<path d="M5.96154 1H14.8264L21 6.74018V20.3421C21 20.7818 20.7933 21.2035 20.4255 21.5144C20.0576 21.8253 19.5587 22 19.0385 22H5.96154C5.44131 22 4.94238 21.8253 4.57452 21.5144C4.20666 21.2035 4 20.7818 4 20.3421V2.65789C4 2.21819 4.20666 1.7965 4.57452 1.48559C4.94238 1.17467 5.44131 1 5.96154 1V1Z" stroke="#75ADEA" stroke-opacity="0.7" stroke-width="1.5" stroke-linejoin="round"/>
<path d="M8 16H17.6923M8 18H14.4615" stroke="#75ADEA" stroke-opacity="0.7" stroke-width="1.2" stroke-linecap="round"/>
<path d="M8 13.5L10.6923 7.5L13.3846 13.5M8.67308 12H12.7115" stroke="#75ADEA" stroke-opacity="0.7" stroke-width="1.2" stroke-linecap="round" stroke-linejoin="round"/>
<path d="M16.0763 10.5V13.5M14.4609 12H17.6917" stroke="#75ADEA" stroke-opacity="0.7" stroke-width="1.2" stroke-linecap="round"/>
</svg>
