<svg width="24" height="24" viewBox="0 0 24 24" fill="none" xmlns="http://www.w3.org/2000/svg">
<path fill-rule="evenodd" clip-rule="evenodd" d="M18.666 6.83301C18.666 6.36888 18.8416 5.92376 19.1542 5.59557C19.4667 5.26738 19.8907 5.08301 20.3327 5.08301C20.7747 5.08301 21.1986 5.26738 21.5112 5.59557C21.8238 5.92376 21.9993 6.36888 21.9993 6.83301V18.6764L20.3327 21.3014L18.666 18.6764V6.83301ZM20.3327 6.24967C20.1853 6.24967 20.044 6.31113 19.9398 6.42053C19.8357 6.52993 19.7771 6.6783 19.7771 6.83301V18.3229L20.3327 19.1979L20.8882 18.3229V6.83301C20.8882 6.6783 20.8297 6.52993 20.7255 6.42053C20.6213 6.31113 20.48 6.24967 20.3327 6.24967Z" fill="#75ADEA" fill-opacity="0.7"/>
<path fill-rule="evenodd" clip-rule="evenodd" d="M21.4444 9.16667H19.2222V8H21.4444V9.16667ZM4.22222 2.16667C3.92754 2.16667 3.64492 2.28958 3.43655 2.50838C3.22817 2.72717 3.11111 3.02391 3.11111 3.33333V19.6667C3.11111 19.9761 3.22817 20.2728 3.43655 20.4916C3.64492 20.7104 3.92754 20.8333 4.22222 20.8333H15.3333C15.628 20.8333 15.9106 20.7104 16.119 20.4916C16.3274 20.2728 16.4444 19.9761 16.4444 19.6667V3.33333C16.4444 3.02391 16.3274 2.72717 16.119 2.50838C15.9106 2.28958 15.628 2.16667 15.3333 2.16667H4.22222ZM2 3.33333C2 2.71449 2.23413 2.121 2.65087 1.68342C3.06762 1.24583 3.63285 1 4.22222 1H15.3333C15.9227 1 16.4879 1.24583 16.9047 1.68342C17.3214 2.121 17.5556 2.71449 17.5556 3.33333V19.6667C17.5556 20.2855 17.3214 20.879 16.9047 21.3166C16.4879 21.7542 15.9227 22 15.3333 22H4.22222C3.63285 22 3.06762 21.7542 2.65087 21.3166C2.23413 20.879 2 20.2855 2 19.6667V3.33333Z" fill="#75ADEA" fill-opacity="0.7"/>
<path fill-rule="evenodd" clip-rule="evenodd" d="M9.78113 6.24984C9.78113 6.09513 9.83966 5.94675 9.94385 5.83736C10.048 5.72796 10.1893 5.6665 10.3367 5.6665H14.7811C14.9285 5.6665 15.0698 5.72796 15.174 5.83736C15.2782 5.94675 15.3367 6.09513 15.3367 6.24984C15.3367 6.40455 15.2782 6.55292 15.174 6.66232C15.0698 6.77171 14.9285 6.83317 14.7811 6.83317H10.3367C10.1893 6.83317 10.048 6.77171 9.94385 6.66232C9.83966 6.55292 9.78113 6.40455 9.78113 6.24984ZM9.78113 8.58317C9.78113 8.42846 9.83966 8.28009 9.94385 8.17069C10.048 8.06129 10.1893 7.99984 10.3367 7.99984H14.7811C14.9285 7.99984 15.0698 8.06129 15.174 8.17069C15.2782 8.28009 15.3367 8.42846 15.3367 8.58317C15.3367 8.73788 15.2782 8.88625 15.174 8.99565C15.0698 9.10505 14.9285 9.1665 14.7811 9.1665H10.3367C10.1893 9.1665 10.048 9.10505 9.94385 8.99565C9.83966 8.88625 9.78113 8.73788 9.78113 8.58317ZM9.78113 13.8332C9.78113 13.6785 9.83966 13.5301 9.94385 13.4207C10.048 13.3113 10.1893 13.2498 10.3367 13.2498H14.7811C14.9285 13.2498 15.0698 13.3113 15.174 13.4207C15.2782 13.5301 15.3367 13.6785 15.3367 13.8332C15.3367 13.9879 15.2782 14.1363 15.174 14.2456C15.0698 14.355 14.9285 14.4165 14.7811 14.4165H10.3367C10.1893 14.4165 10.048 14.355 9.94385 14.2456C9.83966 14.1363 9.78113 13.9879 9.78113 13.8332ZM9.78113 16.1665C9.78113 16.0118 9.83966 15.8634 9.94385 15.754C10.048 15.6446 10.1893 15.5832 10.3367 15.5832H14.7811C14.9285 15.5832 15.0698 15.6446 15.174 15.754C15.2782 15.8634 15.3367 16.0118 15.3367 16.1665C15.3367 16.3212 15.2782 16.4696 15.174 16.579C15.0698 16.6884 14.9285 16.7498 14.7811 16.7498H10.3367C10.1893 16.7498 10.048 16.6884 9.94385 16.579C9.83966 16.4696 9.78113 16.3212 9.78113 16.1665ZM5.33669 13.8332V15.5832H7.00335V13.8332H5.33669ZM4.78113 12.6665H7.55891C7.70625 12.6665 7.84756 12.728 7.95175 12.8374C8.05593 12.9468 8.11447 13.0951 8.11447 13.2498V16.1665C8.11447 16.3212 8.05593 16.4696 7.95175 16.579C7.84756 16.6884 7.70625 16.7498 7.55891 16.7498H4.78113C4.63379 16.7498 4.49248 16.6884 4.3883 16.579C4.28411 16.4696 4.22558 16.3212 4.22558 16.1665V13.2498C4.22558 13.0951 4.28411 12.9468 4.3883 12.8374C4.49248 12.728 4.63379 12.6665 4.78113 12.6665ZM8.50724 5.83742C8.61139 5.94681 8.6699 6.09516 8.6699 6.24984C8.6699 6.40452 8.61139 6.55286 8.50724 6.66225L5.89224 9.408L4.38835 7.82892C4.33529 7.77511 4.29297 7.71074 4.26385 7.63957C4.23474 7.5684 4.21941 7.49186 4.21877 7.4144C4.21813 7.33695 4.23219 7.26014 4.26012 7.18845C4.28805 7.11676 4.32931 7.05163 4.38147 6.99686C4.43363 6.94209 4.49566 6.89877 4.56394 6.86944C4.63221 6.84011 4.70537 6.82535 4.77913 6.82602C4.8529 6.8267 4.9258 6.84279 4.99358 6.87336C5.06136 6.90393 5.12266 6.94837 5.17391 7.00409L5.89224 7.75834L7.72169 5.83742C7.82587 5.72806 7.96715 5.66663 8.11447 5.66663C8.26178 5.66663 8.40306 5.72806 8.50724 5.83742Z" fill="#75ADEA" fill-opacity="0.7"/>
</svg>
