<svg width="24" height="24" viewBox="0 0 24 24" fill="none" xmlns="http://www.w3.org/2000/svg">
<mask id="path-1-inside-1_1638_88499" fill="white">
<path d="M7.19961 11.192H6.39961V12.792H7.19961V11.192ZM16.7996 12.792H17.5996V11.192H16.7996V12.792ZM7.19961 15.2H6.39961V16H7.19961V15.2ZM16.7996 15.2V16H17.5996V15.2H16.7996ZM7.19961 8.8V8H6.39961V8.8H7.19961ZM16.7996 8.8H17.5996V8H16.7996V8.8ZM21.5996 5.6H22.3996V5.2688L22.166 5.0336L21.5996 5.6ZM16.7996 0.8L17.366 0.2336L17.1308 0H16.7996V0.8ZM7.19961 12.792H16.7996V11.192H7.19961V12.792ZM7.19961 16H16.7996V14.4H7.19961V16ZM7.19961 9.6H16.7996V8H7.19961V9.6ZM19.9996 22.4H3.99961V24H19.9996V22.4ZM3.19961 21.6V2.4H1.59961V21.6H3.19961ZM20.7996 5.6V21.6H22.3996V5.6H20.7996ZM3.99961 1.6H16.7996V0H3.99961V1.6ZM16.2332 1.3664L21.0332 6.1664L22.166 5.0336L17.366 0.2336L16.2332 1.3664ZM3.99961 22.4C3.78744 22.4 3.58395 22.3157 3.43392 22.1657C3.28389 22.0157 3.19961 21.8122 3.19961 21.6H1.59961C1.59961 22.2365 1.85247 22.847 2.30255 23.2971C2.75264 23.7471 3.36309 24 3.99961 24V22.4ZM19.9996 24C20.6361 24 21.2466 23.7471 21.6967 23.2971C22.1468 22.847 22.3996 22.2365 22.3996 21.6H20.7996C20.7996 21.8122 20.7153 22.0157 20.5653 22.1657C20.4153 22.3157 20.2118 22.4 19.9996 22.4V24ZM3.19961 2.4C3.19961 2.18783 3.28389 1.98434 3.43392 1.83431C3.58395 1.68429 3.78744 1.6 3.99961 1.6V0C3.36309 0 2.75264 0.252856 2.30255 0.702944C1.85247 1.15303 1.59961 1.76348 1.59961 2.4H3.19961ZM6.39961 8.8V15.2H7.99961V8.8H6.39961ZM11.1996 8.8V15.2H12.7996V8.8H11.1996ZM15.9996 8.8V15.2H17.5996V8.8H15.9996ZM6.39961 6.4H11.1996V4.8H6.39961V6.4ZM12.7996 19.2H17.5996V17.6H12.7996V19.2Z"/>
</mask>
<path d="M7.19961 11.192H6.39961V12.792H7.19961V11.192ZM16.7996 12.792H17.5996V11.192H16.7996V12.792ZM7.19961 15.2H6.39961V16H7.19961V15.2ZM16.7996 15.2V16H17.5996V15.2H16.7996ZM7.19961 8.8V8H6.39961V8.8H7.19961ZM16.7996 8.8H17.5996V8H16.7996V8.8ZM21.5996 5.6H22.3996V5.2688L22.166 5.0336L21.5996 5.6ZM16.7996 0.8L17.366 0.2336L17.1308 0H16.7996V0.8ZM7.19961 12.792H16.7996V11.192H7.19961V12.792ZM7.19961 16H16.7996V14.4H7.19961V16ZM7.19961 9.6H16.7996V8H7.19961V9.6ZM19.9996 22.4H3.99961V24H19.9996V22.4ZM3.19961 21.6V2.4H1.59961V21.6H3.19961ZM20.7996 5.6V21.6H22.3996V5.6H20.7996ZM3.99961 1.6H16.7996V0H3.99961V1.6ZM16.2332 1.3664L21.0332 6.1664L22.166 5.0336L17.366 0.2336L16.2332 1.3664ZM3.99961 22.4C3.78744 22.4 3.58395 22.3157 3.43392 22.1657C3.28389 22.0157 3.19961 21.8122 3.19961 21.6H1.59961C1.59961 22.2365 1.85247 22.847 2.30255 23.2971C2.75264 23.7471 3.36309 24 3.99961 24V22.4ZM19.9996 24C20.6361 24 21.2466 23.7471 21.6967 23.2971C22.1468 22.847 22.3996 22.2365 22.3996 21.6H20.7996C20.7996 21.8122 20.7153 22.0157 20.5653 22.1657C20.4153 22.3157 20.2118 22.4 19.9996 22.4V24ZM3.19961 2.4C3.19961 2.18783 3.28389 1.98434 3.43392 1.83431C3.58395 1.68429 3.78744 1.6 3.99961 1.6V0C3.36309 0 2.75264 0.252856 2.30255 0.702944C1.85247 1.15303 1.59961 1.76348 1.59961 2.4H3.19961ZM6.39961 8.8V15.2H7.99961V8.8H6.39961ZM11.1996 8.8V15.2H12.7996V8.8H11.1996ZM15.9996 8.8V15.2H17.5996V8.8H15.9996ZM6.39961 6.4H11.1996V4.8H6.39961V6.4ZM12.7996 19.2H17.5996V17.6H12.7996V19.2Z" stroke="#75ADEA" stroke-opacity="0.7" stroke-width="2" mask="url(#path-1-inside-1_1638_88499)"/>
</svg>
