<svg width="32" height="32" viewBox="0 0 32 32" fill="none" xmlns="http://www.w3.org/2000/svg">
<path d="M15.927 5.96695C15.8945 5.97283 15.8624 5.9808 15.8308 5.99081C15.6571 6.02974 15.5023 6.1277 15.3927 6.268C15.2832 6.4083 15.2256 6.58225 15.2299 6.76021V7.52962H8.30529C7.69311 7.52962 7.10601 7.7728 6.67313 8.20568C6.24026 8.63855 5.99707 9.22566 5.99707 9.83783V19.8401C5.99707 21.1142 7.03115 22.1483 8.30529 22.1483H15.2299V22.4368L11.0459 24.5289C10.861 24.6181 10.7192 24.7772 10.6516 24.9711C10.584 25.1649 10.5962 25.3777 10.6854 25.5626C10.7747 25.7474 10.9338 25.8893 11.1276 25.9569C11.3215 26.0245 11.5343 26.0123 11.7191 25.923L15.2299 24.168V24.4565C15.2299 24.6606 15.311 24.8563 15.4553 25.0006C15.5996 25.1449 15.7953 25.2259 15.9993 25.2259C16.2034 25.2259 16.3991 25.1449 16.5434 25.0006C16.6877 24.8563 16.7687 24.6606 16.7687 24.4565V24.168L20.2795 25.923C20.4644 26.0123 20.6772 26.0245 20.871 25.9569C21.0649 25.8893 21.224 25.7474 21.3132 25.5626C21.4025 25.3777 21.4147 25.1649 21.3471 24.9711C21.2795 24.7772 21.1377 24.6181 20.9528 24.5289L16.7687 22.4368V22.1483H23.6934C24.9675 22.1483 26.0016 21.1142 26.0016 19.8401V9.83783C26.0016 9.22566 25.7584 8.63855 25.3256 8.20568C24.8927 7.7728 24.3056 7.52962 23.6934 7.52962H16.7687V6.76021C16.7726 6.6508 16.7531 6.54182 16.7115 6.44055C16.6699 6.33928 16.6072 6.24806 16.5275 6.17297C16.4478 6.09789 16.3531 6.04067 16.2495 6.00514C16.146 5.96961 16.036 5.95659 15.927 5.96695ZM7.53588 9.11668H24.4628V20.3692H7.53588V9.11668ZM22.0584 10.6072C21.8861 10.6258 21.725 10.7019 21.6014 10.8234L19.1251 14.1178L17.3219 11.5921C17.2379 11.5058 17.1348 11.4405 17.0209 11.4014C16.907 11.3623 16.7855 11.3504 16.6662 11.3668C16.5469 11.3832 16.4331 11.4274 16.334 11.4958C16.2349 11.5642 16.1532 11.6549 16.0955 11.7606L13.8113 16.7165L12.8732 13.3956C12.8277 13.2739 12.7521 13.1657 12.6534 13.0811C12.5548 12.9966 12.4364 12.9384 12.3091 12.9119C12.1819 12.8855 12.0501 12.8917 11.926 12.93C11.8018 12.9683 11.6894 13.0374 11.5991 13.1309L9.2909 15.4391C9.21815 15.5118 9.16043 15.5981 9.12104 15.6931C9.08165 15.7881 9.06136 15.89 9.06132 15.9928C9.06128 16.0956 9.05655 16.2003 9.12278 16.3058C9.17045 16.3818 9.21247 16.4187 9.2909 16.4622C9.36734 16.5046 9.41947 16.5153 9.50663 16.5217C9.62565 16.5304 9.71133 16.5015 9.80636 16.4622C9.90139 16.4229 9.98774 16.3652 10.0605 16.2925L11.926 14.4304L12.971 17.8212C13.0232 17.9586 13.1137 18.0782 13.2318 18.1658C13.3499 18.2535 13.4906 18.3054 13.6373 18.3155C13.7839 18.3256 13.9305 18.2935 14.0595 18.2229C14.1884 18.1524 14.2945 18.0463 14.3651 17.9174L17.0209 12.93L18.5245 15.0082C18.5963 15.0825 18.6822 15.1415 18.7773 15.1818C18.8723 15.2221 18.9745 15.2429 19.0777 15.2429C19.181 15.2429 19.2832 15.2221 19.3782 15.1818C19.4732 15.1415 19.5592 15.0825 19.6309 15.0082L22.4973 11.7273C22.6188 11.6148 22.7008 11.466 22.7311 11.3032C22.7613 11.1404 22.7382 10.9721 22.6652 10.8234C22.6258 10.7434 22.537 10.6814 22.537 10.6814C22.3896 10.6058 22.2218 10.5798 22.0584 10.6072Z" fill="#0A6ED1"/>
</svg>
