<svg width="20" height="22" viewBox="0 0 20 22" fill="none" xmlns="http://www.w3.org/2000/svg">
<path d="M17.5947 2.30695C17.552 1.68108 17.2733 1.09475 16.8148 0.666538C16.3564 0.238322 15.7525 0.00016517 15.1251 0.00022317H2.47502L2.30562 0.00572335C1.67976 0.0486609 1.09355 0.32766 0.665537 0.786304C0.237524 1.24495 -0.000355477 1.84901 3.98725e-07 2.47635V19.5243L0.00550058 19.6937C0.0481585 20.3196 0.326886 20.9059 0.785324 21.3341C1.24376 21.7623 1.8477 22.0005 2.47502 22.0004H10.7999L9.14989 20.3504H2.47502L2.36282 20.3427C2.16531 20.3156 1.9843 20.2179 1.85326 20.0676C1.72222 19.9174 1.65002 19.7248 1.65002 19.5254V2.47635L1.65772 2.36415C1.68483 2.16664 1.78255 1.98562 1.9328 1.85459C2.08304 1.72355 2.27566 1.65135 2.47502 1.65134H15.1251L15.2373 1.65904C15.4349 1.68615 15.6159 1.78387 15.7469 1.93412C15.8779 2.08437 15.9501 2.27698 15.9502 2.47635V15.2002L17.2251 13.9253C17.3417 13.8087 17.4671 13.7053 17.5991 13.6173V2.47525L17.5947 2.30695ZM13.5169 21.9993C13.4891 22.0009 13.4612 22.0009 13.4333 21.9993C13.2289 21.9891 13.0357 21.9032 12.891 21.7584L10.141 19.0062C9.98638 18.8513 9.89963 18.6413 9.89983 18.4224C9.90004 18.2036 9.98718 17.9937 10.1421 17.8391C10.297 17.6845 10.507 17.5977 10.7259 17.5979C10.9448 17.5981 11.1546 17.6853 11.3092 17.8402L13.4751 20.0083L18.3922 15.0913C18.4683 15.0125 18.5594 14.9497 18.6601 14.9065C18.7607 14.8633 18.869 14.8406 18.9785 14.8397C19.0881 14.8388 19.1967 14.8597 19.2981 14.9013C19.3995 14.9428 19.4915 15.0041 19.569 15.0816C19.6464 15.1591 19.7076 15.2512 19.749 15.3527C19.7905 15.4541 19.8113 15.5627 19.8103 15.6723C19.8093 15.7818 19.7865 15.89 19.7432 15.9907C19.6999 16.0913 19.637 16.1823 19.5582 16.2584L14.0581 21.7584C13.9138 21.903 13.7209 21.9888 13.5169 21.9993ZM10.8241 15.9504C10.7574 15.9478 10.6906 15.9478 10.6239 15.9504H7.96958C7.75077 15.9504 7.54093 15.8635 7.38621 15.7087C7.23149 15.554 7.14457 15.3442 7.14457 15.1254C7.14457 14.9066 7.23149 14.6967 7.38621 14.542C7.54093 14.3873 7.75077 14.3004 7.96958 14.3004H13.474C13.6928 14.3004 13.9027 14.3873 14.0574 14.542C14.2121 14.6967 14.299 14.9066 14.299 15.1254C14.299 15.3442 14.2121 15.554 14.0574 15.7087C13.9027 15.8635 13.6928 15.9504 13.474 15.9504H10.8241ZM5.50005 6.32749C5.50005 6.61923 5.38416 6.89902 5.17787 7.10531C4.97158 7.3116 4.69178 7.4275 4.40004 7.4275C4.1083 7.4275 3.82851 7.3116 3.62222 7.10531C3.41593 6.89902 3.30003 6.61923 3.30003 6.32749C3.30003 6.03574 3.41593 5.75595 3.62222 5.54966C3.82851 5.34337 4.1083 5.22747 4.40004 5.22747C4.69178 5.22747 4.97158 5.34337 5.17787 5.54966C5.38416 5.75595 5.50005 6.03574 5.50005 6.32749ZM7.14567 6.32529C7.14567 6.10648 7.23259 5.89664 7.38731 5.74192C7.54203 5.5872 7.75187 5.50028 7.97068 5.50028H13.4751C13.6939 5.50028 13.9038 5.5872 14.0585 5.74192C14.2132 5.89664 14.3001 6.10648 14.3001 6.32529C14.3001 6.54409 14.2132 6.75394 14.0585 6.90865C13.9038 7.06337 13.6939 7.15029 13.4751 7.15029H7.97068C7.75187 7.15029 7.54203 7.06337 7.38731 6.90865C7.23259 6.75394 7.14567 6.54409 7.14567 6.32529ZM7.97068 9.90032C7.75187 9.90032 7.54203 9.98724 7.38731 10.142C7.23259 10.2967 7.14567 10.5065 7.14567 10.7253C7.14567 10.9441 7.23259 11.154 7.38731 11.3087C7.54203 11.4634 7.75187 11.5503 7.97068 11.5503H13.4751C13.5835 11.5503 13.6908 11.529 13.7908 11.4875C13.8909 11.4461 13.9819 11.3853 14.0585 11.3087C14.1351 11.2321 14.1959 11.1411 14.2373 11.041C14.2788 10.941 14.3001 10.8337 14.3001 10.7253C14.3001 10.617 14.2788 10.5097 14.2373 10.4096C14.1959 10.3095 14.1351 10.2186 14.0585 10.142C13.9819 10.0654 13.8909 10.0046 13.7908 9.96312C13.6908 9.92166 13.5835 9.90032 13.4751 9.90032H7.97068ZM4.40004 11.8253C4.69178 11.8253 4.97158 11.7094 5.17787 11.5032C5.38416 11.2969 5.50005 11.0171 5.50005 10.7253C5.50005 10.4336 5.38416 10.1538 5.17787 9.9475C4.97158 9.74121 4.69178 9.62532 4.40004 9.62532C4.1083 9.62532 3.82851 9.74121 3.62222 9.9475C3.41593 10.1538 3.30003 10.4336 3.30003 10.7253C3.30003 11.0171 3.41593 11.2969 3.62222 11.5032C3.82851 11.7094 4.1083 11.8253 4.40004 11.8253ZM5.50005 15.1232C5.50005 15.4149 5.38416 15.6947 5.17787 15.901C4.97158 16.1073 4.69178 16.2232 4.40004 16.2232C4.1083 16.2232 3.82851 16.1073 3.62222 15.901C3.41593 15.6947 3.30003 15.4149 3.30003 15.1232C3.30003 14.8314 3.41593 14.5516 3.62222 14.3453C3.82851 14.1391 4.1083 14.0232 4.40004 14.0232C4.69178 14.0232 4.97158 14.1391 5.17787 14.3453C5.38416 14.5516 5.50005 14.8314 5.50005 15.1232Z" fill="#0A6ED1"/>
</svg>
