<svg width="32" height="32" viewBox="0 0 32 32" fill="none" xmlns="http://www.w3.org/2000/svg">
<path d="M17.1786 20.7143C17.1786 21.0269 17.0544 21.3266 16.8334 21.5477C16.6123 21.7687 16.3126 21.8929 16 21.8929C15.6874 21.8929 15.3876 21.7687 15.1666 21.5477C14.9456 21.3266 14.8214 21.0269 14.8214 20.7143C14.8214 20.4017 14.9456 20.1019 15.1666 19.8809C15.3876 19.6599 15.6874 19.5357 16 19.5357C16.3126 19.5357 16.6123 19.6599 16.8334 19.8809C17.0544 20.1019 17.1786 20.4017 17.1786 20.7143ZM14.4286 12.8571C14.4286 12.4352 14.57 12.0392 14.8191 11.7587C15.0556 11.4924 15.4272 11.2857 16 11.2857C17.0277 11.2857 17.8716 12.3449 17.595 13.4527C17.4536 14.02 17.1157 14.3445 16.6074 14.8324L16.4675 14.966C15.8947 15.5207 15.2143 16.2577 15.2143 17.5714C15.2143 17.7798 15.2971 17.9797 15.4444 18.127C15.5918 18.2744 15.7916 18.3571 16 18.3571C16.2084 18.3571 16.4082 18.2744 16.5556 18.127C16.7029 17.9797 16.7857 17.7798 16.7857 17.5714C16.7857 16.9216 17.0631 16.5759 17.5596 16.0966L17.7097 15.9536C18.1921 15.4979 18.8616 14.8654 19.1193 13.8338C19.6284 11.7988 18.1151 9.71429 16 9.71429C15.0014 9.71429 14.1944 10.0969 13.6452 10.7145C13.1086 11.3179 12.8571 12.1005 12.8571 12.8571C12.8571 13.0655 12.9399 13.2654 13.0873 13.4127C13.2346 13.5601 13.4345 13.6429 13.6429 13.6429C13.8512 13.6429 14.0511 13.5601 14.1984 13.4127C14.3458 13.2654 14.4286 13.0655 14.4286 12.8571ZM5 16C5 9.92486 9.92486 5 16 5C22.0751 5 27 9.92486 27 16C27 22.0751 22.0751 27 16 27C9.92486 27 5 22.0751 5 16ZM16 6.57143C10.7931 6.57143 6.57143 10.7931 6.57143 16C6.57143 21.2069 10.7931 25.4286 16 25.4286C21.2069 25.4286 25.4286 21.2069 25.4286 16C25.4286 10.7931 21.2069 6.57143 16 6.57143Z" fill="#0A6ED1"/>
</svg>
