<svg width="32" height="32" viewBox="0 0 32 32" fill="none" xmlns="http://www.w3.org/2000/svg">
<path d="M26.2228 13C24.7325 13 23.9 14.48 24.2392 15.5798L20.5905 19.2387C20.2822 19.1462 19.83 19.1462 19.5216 19.2387L16.9008 16.6178C17.2502 15.5181 16.4177 14.0278 14.9171 14.0278C13.4268 14.0278 12.584 15.5078 12.9335 16.6178L8.24675 21.2943C7.14701 20.9551 5.66699 21.7876 5.66699 23.2779C5.66699 24.4085 6.592 25.3335 7.72257 25.3335C9.21287 25.3335 10.0454 23.8535 9.70621 22.7537L14.3827 18.067C14.691 18.1595 15.1432 18.1595 15.4516 18.067L18.0724 20.6879C17.723 21.7876 18.5555 23.2779 20.0561 23.2779C21.5464 23.2779 22.3892 21.7979 22.0397 20.6879L25.6986 17.0392C26.7984 17.3784 28.2784 16.5459 28.2784 15.0556C28.2784 13.925 27.3534 13 26.2228 13Z" fill="#0A6ED1"/>
<path d="M22.6667 14L23.92 11.24L26.6667 10L23.92 8.76L22.6667 6L21.44 8.76L18.6667 10L21.44 11.24L22.6667 14ZM7.33333 16.6667L8 14L10.6667 13.3333L8 12.6667L7.33333 10L6.66667 12.6667L4 13.3333L6.66667 14L7.33333 16.6667Z" fill="#0A6ED1"/>
</svg>
