<svg width="32" height="32" viewBox="0 0 32 32" fill="none" xmlns="http://www.w3.org/2000/svg">
<path d="M8.85743 25.8597L4 21.5268L5.14086 20.2479L9.976 24.5602L16.5674 18.1788C16.8744 17.8815 17.2847 17.7147 17.712 17.7135C18.1394 17.7122 18.5506 17.8765 18.8594 18.1719L21.9657 21.1411L26.7486 16.0214L28 17.1914L23.2163 22.3128C23.0618 22.4782 22.876 22.6113 22.6696 22.7044C22.4633 22.7974 22.2406 22.8487 22.0143 22.855C21.7881 22.8614 21.5628 22.8228 21.3516 22.7415C21.1403 22.6602 20.9473 22.5378 20.7837 22.3814L17.7177 19.4508L11.1469 25.8108C10.8418 26.1063 10.4362 26.2755 10.0116 26.2844C9.58693 26.2933 9.17464 26.1412 8.85743 25.8588V25.8597ZM28 11.7142H24.5714L26.2857 9.1428L28 11.7142ZM21.1429 5.71423H17.7143V7.42852H21.1429V9.1428H18.5714V10.8571H21.1429V12.5714H17.7143V14.2857H21.1429C21.5973 14.285 22.0329 14.1042 22.3543 13.7828C22.6756 13.4615 22.8565 13.0258 22.8571 12.5714V7.42852C22.8567 6.974 22.6759 6.53823 22.3545 6.21684C22.0331 5.89544 21.5974 5.71469 21.1429 5.71423ZM16 14.2857H10.8571V10.8571C10.8576 10.4026 11.0384 9.9668 11.3597 9.64541C11.6811 9.32402 12.1169 9.14326 12.5714 9.1428H14.2857V7.42852H10.8571V5.71423H14.2857C14.7402 5.71469 15.176 5.89544 15.4974 6.21684C15.8188 6.53823 15.9995 6.974 16 7.42852V9.1428C15.9995 9.59732 15.8188 10.0331 15.4974 10.3545C15.176 10.6759 14.7402 10.8566 14.2857 10.8571H12.5714V12.5714H16V14.2857ZM7.42857 12.5714V5.71423H5.71429V6.57138H4V8.28566H5.71429V12.5714H4V14.2857H9.14286V12.5714H7.42857Z" fill="#0A6ED1"/>
</svg>
