<svg width="32" height="32" viewBox="0 0 32 32" fill="none" xmlns="http://www.w3.org/2000/svg">
<g clip-path="url(#clip0_2111_142915)">
<path d="M29.8968 20.9998L26.5801 16L29.8317 11.1001C30.0096 10.8321 30.1216 10.5072 30.1547 10.1636C30.1879 9.82006 30.1407 9.47198 30.0187 9.1602C29.8951 8.81075 29.6902 8.51412 29.4299 8.30769C29.1695 8.10127 28.8652 7.99429 28.5555 8.00024H3.35536C3.15146 7.99627 2.94891 8.04175 2.7593 8.13408C2.56969 8.22641 2.39672 8.36379 2.25027 8.53837C2.10382 8.71294 1.98677 8.92129 1.90579 9.15152C1.82481 9.38175 1.7815 9.62935 1.77832 9.88018L1.77832 22.1298C1.78686 22.6346 1.95757 23.1147 2.2531 23.4651C2.54863 23.8156 2.94494 24.0078 3.35536 23.9997H28.6449C28.9443 24.0059 29.2388 23.9065 29.4938 23.7134C29.7487 23.5203 29.9534 23.2414 30.0837 22.9098C30.2007 22.6017 30.2452 22.2595 30.2122 21.9219C30.1791 21.5844 30.0698 21.2649 29.8968 20.9998ZM3.40413 21.9998V10.0002H28.4254L24.4909 15.93L28.4823 21.9998H3.40413Z" fill="#0A6ED1"/>
<path d="M9.19716 17.0664L6.62136 13.6293H5.72852V18.5123H6.62136V15.0832L9.19716 18.5123H10.0821V13.6293H9.19716V17.0664Z" fill="#0A6ED1"/>
<path d="M11.4014 18.5123H15.0833V17.7064H12.2942V16.4343H14.8147V15.6204H12.2942V14.4432H15.0833V13.6293H11.4014V18.5123Z" fill="#0A6ED1"/>
<path d="M21.1532 17.1296L19.9996 13.6293H19.0357L17.8742 17.1296L16.8312 13.6293H15.8594L17.408 18.5123H18.2851L19.5176 14.8856L20.7423 18.5123H21.6352L23.1759 13.6293H22.2041L21.1532 17.1296Z" fill="#0A6ED1"/>
</g>
<defs>
<clipPath id="clip0_2111_142915">
<rect width="32" height="32" fill="white"/>
</clipPath>
</defs>
</svg>
