<svg width="341" height="190" viewBox="0 0 341 190" fill="none" xmlns="http://www.w3.org/2000/svg">
<g clip-path="url(#clip0_3_983)">
<rect width="341" height="190" fill="white"/>
<ellipse cx="111.5" cy="95" rx="99.5" ry="95" fill="#46ADFB" fill-opacity="0.06"/>
<ellipse cx="131.5" cy="95" rx="99.5" ry="95" fill="#46ADFB" fill-opacity="0.06"/>
<ellipse cx="151.5" cy="95" rx="99.5" ry="95" fill="#46ADFB" fill-opacity="0.06"/>
<ellipse cx="171.5" cy="95" rx="99.5" ry="95" fill="#46ADFB" fill-opacity="0.06"/>
<ellipse cx="191.5" cy="95" rx="99.5" ry="95" fill="#46ADFB" fill-opacity="0.06"/>
<g clip-path="url(#clip1_3_983)">
<path d="M100 20C100 8.95431 108.954 0 120 0H341V190H120C108.954 190 100 181.046 100 170V20Z" fill="url(#paint0_linear_3_983)"/>
<g filter="url(#filter0_d_3_983)">
<path d="M100 0H107.964V0C106.54 13.9929 111.944 27.8003 119.374 39.7425C127.009 52.0132 135 70.1335 135 92.2263C135 115.314 126.273 135.715 118.346 149.485C111.25 161.811 106.524 175.851 107.964 190V190H100V0Z" fill="url(#paint1_linear_3_983)"/>
</g>
</g>
<g filter="url(#filter1_d_3_983)">
<path d="M94 66.4641C97.7128 64.3205 102.287 64.3205 106 66.4641L121.713 75.5359C125.426 77.6795 127.713 81.641 127.713 85.9282V104.072C127.713 108.359 125.426 112.321 121.713 114.464L106 123.536C102.287 125.679 97.7128 125.679 94 123.536L78.2872 114.464C74.5744 112.321 72.2872 108.359 72.2872 104.072V85.9282C72.2872 81.641 74.5744 77.6795 78.2872 75.5359L94 66.4641Z" fill="white"/>
</g>
<path d="M122.213 74.6699L106.5 65.5981C102.478 63.2759 97.5222 63.2759 93.5 65.5981L77.7872 74.6699C73.765 76.9921 71.2872 81.2838 71.2872 85.9282V104.072C71.2872 108.716 73.765 113.008 77.7872 115.33L93.5 124.402C97.5222 126.724 102.478 126.724 106.5 124.402L122.213 115.33C126.235 113.008 128.713 108.716 128.713 104.072V85.9282C128.713 81.2838 126.235 76.9921 122.213 74.6699Z" stroke="url(#paint2_angular_3_983)" stroke-width="2"/>
<path d="M40.9841 87.1569C39.4577 85.8737 39.0098 83.4758 39.9835 81.801C40.0803 81.637 40.1897 81.483 40.3105 81.3407L40.4081 47.2248L44.9111 48.1716L45.109 81.7254C46.1349 83.0656 46.342 85.0187 45.5111 86.4478C44.5373 88.1226 42.5105 88.44 40.9841 87.1569Z" fill="#FFB8B8"/>
<path d="M64.3913 163.519L69.0336 163.518L71.2423 143.353L64.3906 143.354L64.3913 163.519Z" fill="#FFB8B8"/>
<path d="M63.2188 161.813L72.3613 161.812H72.3616C73.9068 161.813 75.3887 162.504 76.4813 163.734C77.574 164.965 78.1879 166.634 78.188 168.374V168.587L63.219 168.588L63.2188 161.813Z" fill="#2F2E41"/>
<path d="M21.2272 163.519L25.8699 163.518L28.0782 143.353L21.2266 143.354L21.2272 163.519Z" fill="#FFB8B8"/>
<path d="M20.0547 161.813L29.1972 161.812H29.1976C30.7428 161.813 32.2247 162.504 33.3173 163.734C34.4099 164.965 35.0238 166.634 35.0239 168.374V168.587L20.055 168.588L20.0547 161.813Z" fill="#2F2E41"/>
<path d="M64.128 157.888L63.7389 155.259C63.3392 155.102 62.9996 154.795 62.7766 154.39C62.3588 153.646 62.2922 152.6 62.5786 151.279L59.4464 121.49L43.0933 102.382L32.6024 130.879L28.4494 153.428V156.686L20.1578 157.885L20.5351 154.815C20.2179 154.662 19.9536 154.396 19.7822 154.059C19.3058 153.166 19.3123 151.782 19.8015 149.946L19.8227 149.866L19.7956 149.592C19.7766 149.4 19.9013 130.981 24.7634 121.855L29.6329 94.148C29.5064 93.7578 28.8821 91.486 30.027 87.6471C31.157 83.8586 34.3173 77.7554 42.9558 70.1943L42.9855 70.1685L43.0223 70.1597C43.118 70.1375 52.6458 68.0043 57.5733 75.2609L57.6067 75.31V75.3718C57.6067 75.8204 57.5981 86.2608 56.8651 88.5773L68.5577 112.789C68.7854 113.061 70.8296 115.719 70.1035 122.709L71.9924 146.534C72.2085 146.998 74.1637 151.374 72.0088 153.107L72.3951 156.115L64.128 157.888Z" fill="#2F2E41"/>
<path d="M44.5591 57.769C42.3636 57.769 39.4461 56.8951 37.6601 52.867L37.625 52.7879L42.0249 42.2845C42.5949 40.9237 43.6152 39.8682 44.8675 39.3438C46.1197 38.8194 47.5045 38.8677 48.7255 39.4785C49.9466 40.0892 50.9068 41.2139 51.4009 42.6119C51.895 44.0098 51.8836 45.57 51.3693 46.9586L47.5653 57.2282L47.4991 57.2558C46.549 57.5995 45.5569 57.7726 44.5591 57.769V57.769Z" fill="#0097D8"/>
<path d="M56.7612 78.5944L42.8906 71.2182L44.7972 45.0228L48.2732 40.2385L48.9466 40.0761C52.0411 39.33 55.2567 39.5306 58.2592 40.657L58.3252 40.6818L64.0347 54.3985C64.0705 54.4669 68.188 62.6536 62.496 66.9699L56.7612 78.5944Z" fill="#0097D8"/>
<path d="M75.8277 70.2445C75.6621 70.3221 75.5023 70.4144 75.3497 70.5204L60.7334 62.991L60.3585 58.614L54.4189 58.3879L54.4141 66.2091C54.4137 66.841 54.5953 67.4559 54.9316 67.9616C55.268 68.4674 55.7409 68.8366 56.2795 69.0138L73.8311 74.7904C74.0114 75.5415 74.3904 76.213 74.9178 76.7155C75.4452 77.218 76.096 77.5278 76.7835 77.6037C77.4711 77.6796 78.1629 77.5179 78.7668 77.1402C79.3708 76.7625 79.8584 76.1867 80.1647 75.4893C80.471 74.7919 80.5815 74.0061 80.4815 73.2362C80.3815 72.4664 80.0758 71.7491 79.6049 71.1798C79.1341 70.6104 78.5206 70.2159 77.8458 70.0489C77.1711 69.8818 76.4672 69.95 75.8277 70.2445L75.8277 70.2445Z" fill="#FFB8B8"/>
<path d="M57.944 60.4842C56.2784 60.4842 54.3988 59.8356 52.5947 57.8039L52.5391 57.7413L53.7581 46.2093C53.916 44.7152 54.5869 43.3501 55.6272 42.4059C56.6675 41.4618 57.9946 41.0137 59.3246 41.1575C60.6545 41.3012 61.8817 42.0255 62.7435 43.1752C63.6054 44.325 64.0334 45.8089 63.9361 47.3095L63.2164 58.4071L63.1614 58.4568C63.1261 58.4887 60.8646 60.4842 57.944 60.4842Z" fill="#0097D8"/>
<path d="M62.3996 31.1118C64.8634 26.0362 63.207 19.6724 58.6999 16.8978C54.1929 14.1232 48.542 15.9885 46.0782 21.0642C43.6145 26.1398 45.2709 32.5036 49.7779 35.2782C54.2849 38.0528 59.9358 36.1875 62.3996 31.1118Z" fill="#FFB8B8"/>
<path d="M63.701 20.5383C63.2395 17.5154 61.0848 15.0096 58.5179 13.9843C55.9509 12.959 53.0563 13.2924 50.5426 14.4731C50.124 14.6707 49.7147 14.8923 49.3163 15.1371C48.3976 13.1649 46.1451 12.0211 44.0848 12.1445C41.5959 12.2937 39.3481 13.7768 37.1864 15.1745C35.0248 16.5723 32.7051 17.963 30.2131 17.8979C25.7099 17.7804 22.3596 13.0786 18.0293 11.6813C16.1016 11.0593 14.0504 11.1222 12.1556 11.8615C10.2609 12.6007 8.6148 13.9803 7.44197 15.812C6.26914 17.6437 5.62669 19.8383 5.60228 22.0964C5.57788 24.3545 6.17269 26.5661 7.30558 28.4294C9.15324 24.7005 13.4923 23.4411 17.2572 23.9487C21.022 24.4563 24.5309 26.3148 28.2192 27.3047C31.9078 28.2947 36.1795 28.2522 39.0365 25.4448C40.6572 23.8524 41.6087 21.5764 43.0195 19.7482C43.9739 18.5117 45.3325 17.4676 46.7207 17.2218C45.3534 18.6085 44.3095 20.3523 43.6808 22.2998C42.5676 25.8614 43.1627 30.1377 45.4719 32.8752C47.9475 35.8101 51.8328 36.5923 55.427 36.5448L55.5022 36.4588C54.4018 34.6038 53.5333 32.0316 54.7449 30.2666C55.9409 28.5244 58.2998 28.7811 60.1315 28.0102C62.6827 26.9364 64.1623 23.5611 63.701 20.5383Z" fill="#2F2E41"/>
<path d="M83.7418 169H13.2582C13.1897 169 13.124 168.947 13.0756 168.854C13.0272 168.76 13 168.633 13 168.5C13 168.367 13.0272 168.24 13.0756 168.146C13.124 168.053 13.1897 168 13.2582 168H83.7418C83.8103 168 83.876 168.053 83.9244 168.146C83.9728 168.24 84 168.367 84 168.5C84 168.633 83.9728 168.76 83.9244 168.854C83.876 168.947 83.8103 169 83.7418 169Z" fill="#E6E6E6"/>
</g>
<defs>
<filter id="filter0_d_3_983" x="80" y="-21" width="75" height="230" filterUnits="userSpaceOnUse" color-interpolation-filters="sRGB">
<feFlood flood-opacity="0" result="BackgroundImageFix"/>
<feColorMatrix in="SourceAlpha" type="matrix" values="0 0 0 0 0 0 0 0 0 0 0 0 0 0 0 0 0 0 127 0" result="hardAlpha"/>
<feOffset dy="-1"/>
<feGaussianBlur stdDeviation="10"/>
<feComposite in2="hardAlpha" operator="out"/>
<feColorMatrix type="matrix" values="0 0 0 0 0 0 0 0 0 0 0 0 0 0 0 0 0 0 0.5 0"/>
<feBlend mode="normal" in2="BackgroundImageFix" result="effect1_dropShadow_3_983"/>
<feBlend mode="normal" in="SourceGraphic" in2="effect1_dropShadow_3_983" result="shape"/>
</filter>
<filter id="filter1_d_3_983" x="62.2872" y="61.8564" width="75.4256" height="80.2872" filterUnits="userSpaceOnUse" color-interpolation-filters="sRGB">
<feFlood flood-opacity="0" result="BackgroundImageFix"/>
<feColorMatrix in="SourceAlpha" type="matrix" values="0 0 0 0 0 0 0 0 0 0 0 0 0 0 0 0 0 0 127 0" result="hardAlpha"/>
<feOffset dy="7"/>
<feGaussianBlur stdDeviation="5"/>
<feComposite in2="hardAlpha" operator="out"/>
<feColorMatrix type="matrix" values="0 0 0 0 0 0 0 0 0 0 0 0 0 0 0 0 0 0 0.1 0"/>
<feBlend mode="normal" in2="BackgroundImageFix" result="effect1_dropShadow_3_983"/>
<feBlend mode="normal" in="SourceGraphic" in2="effect1_dropShadow_3_983" result="shape"/>
</filter>
<linearGradient id="paint0_linear_3_983" x1="176.733" y1="44.3796" x2="347.036" y2="149.605" gradientUnits="userSpaceOnUse">
<stop stop-color="#008EFA" stop-opacity="0.83"/>
<stop offset="1" stop-color="#008EFA" stop-opacity="0.68"/>
</linearGradient>
<linearGradient id="paint1_linear_3_983" x1="96.1023" y1="70.625" x2="120.023" y2="75.3757" gradientUnits="userSpaceOnUse">
<stop stop-color="#6A9AE0"/>
<stop offset="1" stop-color="#4DBCEB"/>
</linearGradient>
<radialGradient id="paint2_angular_3_983" cx="0" cy="0" r="1" gradientUnits="userSpaceOnUse" gradientTransform="translate(100 95) rotate(90) scale(32)">
<stop offset="0.136555" stop-color="#D260FA"/>
<stop offset="0.498871" stop-color="#488FD0"/>
<stop offset="0.868203" stop-color="#5078DF"/>
</radialGradient>
<clipPath id="clip0_3_983">
<rect width="341" height="190" fill="white"/>
</clipPath>
<clipPath id="clip1_3_983">
<path d="M100 20C100 8.95431 108.954 0 120 0H341V190H120C108.954 190 100 181.046 100 170V20Z" fill="white"/>
</clipPath>
</defs>
</svg>
