<svg width="341" height="190" viewBox="0 0 341 190" fill="none" xmlns="http://www.w3.org/2000/svg">
<rect width="341" height="190" fill="white"/>
<ellipse cx="111.5" cy="95" rx="99.5" ry="95" fill="#46ADFB" fill-opacity="0.06"/>
<ellipse cx="131.5" cy="95" rx="99.5" ry="95" fill="#46ADFB" fill-opacity="0.06"/>
<ellipse cx="151.5" cy="95" rx="99.5" ry="95" fill="#46ADFB" fill-opacity="0.06"/>
<ellipse cx="171.5" cy="95" rx="99.5" ry="95" fill="#46ADFB" fill-opacity="0.06"/>
<ellipse cx="191.5" cy="95" rx="99.5" ry="95" fill="#46ADFB" fill-opacity="0.06"/>
<g clip-path="url(#clip0_3_983)">
<path d="M100 20C100 8.95431 108.954 0 120 0H341V190H120C108.954 190 100 181.046 100 170V20Z" fill="url(#paint0_linear_3_983)"/>
<g filter="url(#filter0_d_3_983)">
<path d="M100 0H107.964V0C106.54 13.9929 111.944 27.8003 119.374 39.7425C127.009 52.0132 135 70.1335 135 92.2263C135 115.314 126.273 135.715 118.346 149.485C111.25 161.811 106.524 175.851 107.964 190V190H100V0Z" fill="url(#paint1_linear_3_983)"/>
</g>
</g>
<g filter="url(#filter1_d_3_983)">
<path d="M94 66.4641C97.7128 64.3205 102.287 64.3205 106 66.4641L121.713 75.5359C125.426 77.6795 127.713 81.641 127.713 85.9282V104.072C127.713 108.359 125.426 112.321 121.713 114.464L106 123.536C102.287 125.679 97.7128 125.679 94 123.536L78.2872 114.464C74.5744 112.321 72.2872 108.359 72.2872 104.072V85.9282C72.2872 81.641 74.5744 77.6795 78.2872 75.5359L94 66.4641Z" fill="white"/>
</g>
<path d="M122.213 74.6699L106.5 65.5981C102.478 63.2759 97.5222 63.2759 93.5 65.5981L77.7872 74.6699C73.765 76.9921 71.2872 81.2838 71.2872 85.9282V104.072C71.2872 108.716 73.765 113.008 77.7872 115.33L93.5 124.402C97.5222 126.724 102.478 126.724 106.5 124.402L122.213 115.33C126.235 113.008 128.713 108.716 128.713 104.072V85.9282C128.713 81.2838 126.235 76.9921 122.213 74.6699Z" stroke="url(#paint2_angular_3_983)" stroke-width="2"/>
<path d="M85.4559 71.5176C85.7109 73.0459 83.953 74.6264 81.5286 75.0482C80.5624 75.2298 79.5687 75.1795 78.6306 74.9015L75.8778 75.3454L75.8762 75.393L63.3817 79.5797C60.4766 80.5531 57.268 80.1889 54.7556 78.4849C53.261 77.4712 52.3053 76.2154 53.5016 74.9133C55.4867 72.7527 65.8587 72.0162 71.8017 71.7698L77.9184 70.6329C78.7136 70.0531 79.6352 69.6695 80.6062 69.5141C83.0296 69.0922 85.201 69.9893 85.4559 71.5176L85.4559 71.5176L85.4559 71.5176Z" fill="#FFB6B6"/>
<path d="M49.3955 172.713H54.7333L56.3347 151.567H46.7266L49.3955 172.713Z" fill="#FFB8B8"/>
<path d="M27.5129 170.597L33.3845 170.599L34.4521 149.452H26.4453L27.5129 170.597Z" fill="#FFB8B8"/>
<path d="M45.0234 44.0047L43.2584 37.2636L36.3825 36.9351L34.3253 46.2274L45.0234 44.0047Z" fill="#FFB6B6"/>
<path opacity="0.1" d="M45.0234 44.0047L43.2584 37.2636L36.3825 36.9351L34.3253 46.2274L45.0234 44.0047Z" fill="black"/>
<path d="M40.4975 41.0349C35.9139 41.0349 32.1982 37.3434 32.1982 32.7896C32.1982 28.2359 35.9139 24.5444 40.4975 24.5444C45.0811 24.5444 48.7969 28.2359 48.7969 32.7896C48.7969 37.3434 45.0811 41.0349 40.4975 41.0349Z" fill="#FFB6B6"/>
<path d="M35.9234 34.5351H35.9234C35.9234 34.5351 39.0762 28.3291 42.7702 28.6874C46.4642 29.0457 48.4103 29.4815 48.4103 29.4815C48.4103 29.4815 49.5069 24.6479 44.3444 22.7887C44.3444 22.7887 50.9084 16.3604 43.0933 13.2071C35.2783 10.0537 30.9052 14.0754 30.9052 14.0754C30.9052 14.0754 25.1205 19.8127 32.4062 24.1007C32.4062 24.1007 26.9963 31.3302 33.5463 37.2889C33.5463 37.2889 32.0813 32.467 33.6099 33.3563C35.1385 34.2455 35.9234 34.5351 35.9234 34.5351V34.5351L35.9234 34.5351L35.9234 34.5351Z" fill="#2F2E41"/>
<path d="M49.6546 78.0972L50.7586 79.1483C50.7586 79.1483 56.5719 88.0054 57.4716 96.0572C59.5393 114.56 57.4718 164.417 57.4718 164.417H46.2073L39.9216 110.322L35.6864 164.282H25.7733C25.7733 164.282 24.8038 144.401 23.8431 131.684C22.88 118.937 22.7105 114.175 22.7105 99.2292C22.7105 91.7342 28.3531 81.393 28.3531 81.393L49.6546 78.0972Z" fill="#2F2E41"/>
<path d="M35.7707 43.3174H44.7194L54.4531 48.5213L52.1833 58.5822C52.1833 58.5822 52.7071 64.6534 51.4849 69.1634C50.2627 73.6735 50.7865 79.5712 50.7865 79.5712L28.3501 81.3926L27.6517 60.9239L28.0009 47.2203L35.7707 43.3174V43.3174V43.3174Z" fill="#F97777"/>
<path d="M52.971 48.6084C52.971 48.6084 58.3837 48.7819 59.2567 52.2511C60.1297 55.7204 60.8281 73.5871 60.8281 73.5871C60.8281 73.5871 60.3043 84.1889 54.4551 79.1482C48.606 74.1075 49.1298 58.8427 49.1298 58.8427L52.971 48.6084V48.6084Z" fill="#F97777"/>
<path d="M21.3091 105.222C19.7536 105.074 18.6825 102.985 18.9165 100.556C18.9966 99.5849 19.3098 98.6465 19.8297 97.8199L20.1295 95.0708L20.0836 95.0571L19.33 82.0224C19.1548 78.9917 20.3624 76.0136 22.689 74.0456C24.073 72.8749 25.5495 72.2821 26.4989 73.7613C28.0743 76.2158 26.0337 86.3336 24.6936 92.086L24.1741 98.233C24.527 99.1429 24.6554 100.124 24.5486 101.093C24.3149 103.521 22.8645 105.37 21.3091 105.222V105.222Z" fill="#FFB6B6"/>
<path d="M29.9219 47.5686C29.9219 47.5686 25.3822 45.8339 23.287 51.0378C21.1918 56.2417 18.9219 81.9143 18.9219 81.9143L29.5727 80.0062L29.9219 47.5686V47.5686V47.5686Z" fill="#F97777"/>
<path d="M67.8928 177.943H17.0223C16.9729 177.943 16.9255 177.89 16.8905 177.796C16.8556 177.703 16.8359 177.575 16.8359 177.443C16.8359 177.31 16.8556 177.183 16.8905 177.089C16.9255 176.996 16.9729 176.943 17.0223 176.943H67.8928C67.9423 176.943 67.9897 176.996 68.0246 177.089C68.0595 177.183 68.0792 177.31 68.0792 177.443C68.0792 177.575 68.0595 177.703 68.0246 177.796C67.9897 177.89 67.9423 177.943 67.8928 177.943Z" fill="#E6E6E6"/>
<path d="M48.8605 169.542L55.2703 169.542C56.9199 169.542 56.8716 172.713 62.7432 172.713C64.2789 172.713 64.8783 174.574 64.8784 176.414V176.943H48.8647C48.8647 176.943 46.7286 173.242 48.8605 169.542Z" fill="#2F2E41"/>
<path d="M33.923 169.542L27.5195 169.542C26.168 169.542 28.0391 173.242 24.3136 173.242C23.0554 173.242 22.7151 174.639 22.715 176.478L22.7122 176.943H34.2341C34.2341 176.943 35.6697 173.242 33.923 169.542Z" fill="#2F2E41"/>
<defs>
<filter id="filter0_d_3_983" x="80" y="-21" width="75" height="230" filterUnits="userSpaceOnUse" color-interpolation-filters="sRGB">
<feFlood flood-opacity="0" result="BackgroundImageFix"/>
<feColorMatrix in="SourceAlpha" type="matrix" values="0 0 0 0 0 0 0 0 0 0 0 0 0 0 0 0 0 0 127 0" result="hardAlpha"/>
<feOffset dy="-1"/>
<feGaussianBlur stdDeviation="10"/>
<feComposite in2="hardAlpha" operator="out"/>
<feColorMatrix type="matrix" values="0 0 0 0 0 0 0 0 0 0 0 0 0 0 0 0 0 0 0.5 0"/>
<feBlend mode="normal" in2="BackgroundImageFix" result="effect1_dropShadow_3_983"/>
<feBlend mode="normal" in="SourceGraphic" in2="effect1_dropShadow_3_983" result="shape"/>
</filter>
<filter id="filter1_d_3_983" x="62.2872" y="61.8564" width="75.4256" height="80.2872" filterUnits="userSpaceOnUse" color-interpolation-filters="sRGB">
<feFlood flood-opacity="0" result="BackgroundImageFix"/>
<feColorMatrix in="SourceAlpha" type="matrix" values="0 0 0 0 0 0 0 0 0 0 0 0 0 0 0 0 0 0 127 0" result="hardAlpha"/>
<feOffset dy="7"/>
<feGaussianBlur stdDeviation="5"/>
<feComposite in2="hardAlpha" operator="out"/>
<feColorMatrix type="matrix" values="0 0 0 0 0 0 0 0 0 0 0 0 0 0 0 0 0 0 0.1 0"/>
<feBlend mode="normal" in2="BackgroundImageFix" result="effect1_dropShadow_3_983"/>
<feBlend mode="normal" in="SourceGraphic" in2="effect1_dropShadow_3_983" result="shape"/>
</filter>
<linearGradient id="paint0_linear_3_983" x1="176.733" y1="44.3796" x2="347.036" y2="149.605" gradientUnits="userSpaceOnUse">
<stop stop-color="#008EFA" stop-opacity="0.83"/>
<stop offset="1" stop-color="#008EFA" stop-opacity="0.68"/>
</linearGradient>
<linearGradient id="paint1_linear_3_983" x1="96.1023" y1="70.625" x2="120.023" y2="75.3757" gradientUnits="userSpaceOnUse">
<stop stop-color="#6A9AE0"/>
<stop offset="1" stop-color="#4DBCEB"/>
</linearGradient>
<radialGradient id="paint2_angular_3_983" cx="0" cy="0" r="1" gradientUnits="userSpaceOnUse" gradientTransform="translate(100 95) rotate(90) scale(32)">
<stop offset="0.136555" stop-color="#D260FA"/>
<stop offset="0.498871" stop-color="#488FD0"/>
<stop offset="0.868203" stop-color="#5078DF"/>
</radialGradient>
<clipPath id="clip0_3_983">
<path d="M100 20C100 8.95431 108.954 0 120 0H341V190H120C108.954 190 100 181.046 100 170V20Z" fill="white"/>
</clipPath>
</defs>
</svg>
