<svg width="341" height="190" viewBox="0 0 341 190" fill="none" xmlns="http://www.w3.org/2000/svg">
<rect width="341" height="190" fill="white"/>
<ellipse cx="111.5" cy="95" rx="99.5" ry="95" fill="#46ADFB" fill-opacity="0.06"/>
<ellipse cx="131.5" cy="95" rx="99.5" ry="95" fill="#46ADFB" fill-opacity="0.06"/>
<ellipse cx="151.5" cy="95" rx="99.5" ry="95" fill="#46ADFB" fill-opacity="0.06"/>
<ellipse cx="171.5" cy="95" rx="99.5" ry="95" fill="#46ADFB" fill-opacity="0.06"/>
<ellipse cx="191.5" cy="95" rx="99.5" ry="95" fill="#46ADFB" fill-opacity="0.06"/>
<g clip-path="url(#clip0_3_983)">
<path d="M100 20C100 8.95431 108.954 0 120 0H341V190H120C108.954 190 100 181.046 100 170V20Z" fill="url(#paint0_linear_3_983)"/>
<g filter="url(#filter0_d_3_983)">
<path d="M100 0H107.964V0C106.54 13.9929 111.944 27.8003 119.374 39.7425C127.009 52.0132 135 70.1335 135 92.2263C135 115.314 126.273 135.715 118.346 149.485C111.25 161.811 106.524 175.851 107.964 190V190H100V0Z" fill="url(#paint1_linear_3_983)"/>
</g>
</g>
<g filter="url(#filter1_d_3_983)">
<path d="M94 66.4641C97.7128 64.3205 102.287 64.3205 106 66.4641L121.713 75.5359C125.426 77.6795 127.713 81.641 127.713 85.9282V104.072C127.713 108.359 125.426 112.321 121.713 114.464L106 123.536C102.287 125.679 97.7128 125.679 94 123.536L78.2872 114.464C74.5744 112.321 72.2872 108.359 72.2872 104.072V85.9282C72.2872 81.641 74.5744 77.6795 78.2872 75.5359L94 66.4641Z" fill="white"/>
</g>
<path d="M122.213 74.6699L106.5 65.5981C102.478 63.2759 97.5222 63.2759 93.5 65.5981L77.7872 74.6699C73.765 76.9921 71.2872 81.2838 71.2872 85.9282V104.072C71.2872 108.716 73.765 113.008 77.7872 115.33L93.5 124.402C97.5222 126.724 102.478 126.724 106.5 124.402L122.213 115.33C126.235 113.008 128.713 108.716 128.713 104.072V85.9282C128.713 81.2838 126.235 76.9921 122.213 74.6699Z" stroke="url(#paint2_angular_3_983)" stroke-width="2"/>
<g clip-path="url(#clip1_3_983)">
<path d="M85.3047 75.8734C84.7649 76.0108 84.2018 76.0255 83.6549 75.9164C83.108 75.8073 82.5907 75.577 82.1395 75.2419C81.6882 74.9067 81.3139 74.4748 81.043 73.9766C80.7721 73.4784 80.6112 72.9259 80.5715 72.3582L67.5015 68.7135L72.4066 64.5538L84.3698 68.1561C85.3072 68.155 86.2138 68.5054 86.9178 69.1408C87.6218 69.7762 88.0743 70.6526 88.1895 71.6039C88.3048 72.5551 88.0748 73.5152 87.5431 74.302C87.0114 75.0889 86.2149 75.648 85.3047 75.8734Z" fill="#E3A8A8"/>
<path d="M66.3073 169H13.6927C13.6416 169 13.5926 168.947 13.5564 168.854C13.5203 168.76 13.5 168.633 13.5 168.5C13.5 168.367 13.5203 168.24 13.5564 168.146C13.5926 168.053 13.6416 168 13.6927 168H66.3073C66.3584 168 66.4074 168.053 66.4435 168.146C66.4797 168.24 66.5 168.367 66.5 168.5C66.5 168.633 66.4797 168.76 66.4435 168.854C66.4074 168.947 66.3584 169 66.3073 169Z" fill="#E6E6E6"/>
<path d="M26.1359 138.535L22.3828 140.63L24.7712 148.663L28.524 149.012L30.5713 144.472L26.1359 138.535Z" fill="#E3A8A8"/>
<path d="M37.7422 154.604V158.445L43.5423 158.096L43.4615 154.932L37.7422 154.604Z" fill="#E3A8A8"/>
<path d="M24.7578 92.4382L26.8048 118.631L33.2874 157.046L43.5228 155.649L40.1111 125.266L41.4759 97.3277L24.7578 92.4382Z" fill="#2F4355"/>
<path d="M52.0526 72.8806L27.4873 73.2298L24.7578 92.4377L41.4759 100.47L45.5701 115.836L24.7578 138.536L32.9463 149.013C32.9463 149.013 44.5466 132.949 53.0762 123.869C61.6058 114.789 57.5116 87.1992 57.5116 87.1992L52.0526 72.8806Z" fill="#2F4355"/>
<path d="M24.7622 138.188C24.7622 138.188 19.9856 139.585 18.2797 139.934C16.5737 140.284 19.3032 146.919 19.3032 146.919C19.3032 146.919 21.0091 155.999 21.3503 157.745C21.6915 159.491 24.0798 165.428 27.1505 166.127C30.2211 166.825 28.174 153.904 28.174 153.904C28.174 153.904 29.5388 149.713 29.5388 148.316C29.5388 146.919 27.4917 147.618 27.4917 147.618C22.0327 146.919 24.7622 138.188 24.7622 138.188Z" fill="#2F2E41"/>
<path d="M36.0295 165.076C36.3707 167.172 35.5 167.87 41.1473 167.87C46.6062 168.569 45.2415 164.029 45.2415 164.029C45.0133 161.888 44.5556 159.78 43.8767 157.743C42.8532 154.949 37.3942 158.441 37.3942 158.441C37.3942 158.441 35.6883 162.981 36.0295 165.076Z" fill="#2F2E41"/>
<path d="M40.7876 33.3233C36.1657 33.3233 32.4189 29.509 32.4189 24.804C32.4189 20.0989 36.1657 16.2847 40.7876 16.2847C45.4095 16.2847 49.1562 20.0989 49.1562 24.804C49.1562 29.509 45.4095 33.3233 40.7876 33.3233Z" fill="#E3A8A8"/>
<g filter="url(#filter2_i_3_983)">
<path d="M34.7365 35.532L33.1 38.7251L21.7806 43.8619L24.756 73.1745L26.0083 76.21L25.3317 78.846L26.963 80.7914C25.3256 82.2997 25.1176 83.8786 26.0083 85.5118L31.2209 86.7273C31.2209 86.7273 60.2041 89.351 57.7615 84.78C55.0927 79.7857 54.413 65.0359 60.3048 57.154C65.3068 50.4624 61.4666 41.7795 61.4666 41.7795L49.6017 38.1698L45.2376 35.532L34.7365 35.532Z" fill="#84A7BD"/>
</g>
<path d="M37.064 12.3235C37.0247 12.2388 36.9614 12.168 36.8822 12.1202C36.8031 12.0724 36.7117 12.0497 36.6198 12.0552C40.4511 11.8219 44.4867 12.2765 47.692 14.4258C48.4686 14.9465 51.2007 13.5676 52.0457 13.9453C52.0856 13.9636 52.1202 13.992 52.1461 14.0279C52.172 14.0637 52.1883 14.1058 52.1935 14.15C52.1987 14.1942 52.1926 14.239 52.1758 14.2801C52.159 14.3212 52.132 14.3571 52.0975 14.3844L52.0047 14.4585C51.9681 14.4878 51.94 14.5267 51.9236 14.571C51.9072 14.6153 51.903 14.6634 51.9115 14.7099C51.9201 14.7565 50.941 15.7998 50.972 15.8351C51.0031 15.8704 51.043 15.8964 51.0875 15.9102C51.1339 15.9246 51.1753 15.9522 51.2068 15.9898C51.2383 16.0273 51.2586 16.0732 51.2653 16.1221C51.2721 16.171 51.2649 16.2209 51.2447 16.2658C51.2245 16.3107 51.1922 16.3488 51.1514 16.3756L50.4402 16.8436C50.4044 16.8667 50.3748 16.8987 50.3543 16.9365C50.3338 16.9743 50.3229 17.0167 50.3226 17.0599C50.3224 17.1031 50.3328 17.1457 50.353 17.1837C50.3731 17.2217 50.4023 17.254 50.4379 17.2775C50.4981 17.3154 50.5614 17.3481 50.627 17.3751C50.6678 17.3908 50.704 17.4168 50.7321 17.4508C50.7601 17.4848 50.7791 17.5256 50.7872 17.5692C50.7953 17.6128 50.7922 17.6579 50.7782 17.6999C50.7643 17.742 50.7399 17.7797 50.7075 17.8094C50.3995 18.0885 49.1632 19.4401 49.0193 19.8335C48.7822 20.461 48.54 20.8289 48.5 21.5C48 20.5 47.4166 20.2772 46.436 20.2193C45.4555 20.1613 44.4992 20.4907 43.5449 20.7275C41.4665 21.2416 39.3079 21.3262 37.1968 20.9761C37.9137 22.4406 37.309 24.1874 36.7005 25.7019L34.7308 24.8424C32.0256 23.2879 33.9099 29.8637 34.9213 30.7664C32.6094 33.6273 32.2308 30.7337 31.2308 26.7337C30.7308 24.7337 28.5 24 29.1902 20.3381C30.0947 18.742 29.4526 16.6835 31.2308 15.1697C32.1023 14.2358 33.8423 14.6509 34.7308 13.8747C35.0804 13.5691 34.5475 12.7518 35.028 12.5737C35.1876 12.5145 37.0376 12.2639 37.064 12.3235Z" fill="#2F2E41"/>
<path d="M51.2327 38.9944C52.7683 45.9346 55.0041 67.1108 59 70.4998C59.5 70.9238 61.6051 71.2261 63 71.4998C64.8356 71.8598 65.6378 71.8226 67.5 71.9998C71.1126 72.3435 76.5 73.4998 76.5 73.4998C76.5 73.4998 80 70.8606 81 66.4998C81 66.4998 67.2672 62.5995 65.7516 61.5668C64.236 60.5342 62.0707 42.3819 62.0707 42.3819L61.0969 41.4573L61.0915 41.4517L51.2327 38.9944Z" fill="#84A7BD"/>
<path d="M24.4345 71L25.8962 83.8892C25.8962 83.8892 34.7603 91.2544 32.7877 91.7147C30.815 92.1751 29.8315 90.3337 29.8315 90.3337C29.8315 90.3337 26.3761 93.556 24.4066 91.7147C22.437 89.8734 17.5306 72.381 17.5306 72.381L24.4345 71Z" fill="#FFB6B6"/>
<path d="M24.8987 43.1228L21.7779 43.8618C21.7779 43.8618 13.3247 61.9998 14.5 66.4998C15.1529 68.9998 20.9034 87.2645 20.9034 87.2645C20.9034 87.2645 25.348 86.4207 27.5 83.4998L24.7468 64.0884L26.8116 56.0235L24.8987 43.1228Z" fill="#84A7BD"/>
<path d="M67.5956 27.203C66.3152 27.203 65.2772 26.1463 65.2772 24.8428C65.2772 23.5393 66.3152 22.4827 67.5956 22.4827C68.8761 22.4827 69.9141 23.5393 69.9141 24.8428C69.9141 26.1463 68.8761 27.203 67.5956 27.203Z" fill="#F2F2F2"/>
<path d="M76.0566 95.0916C74.7761 95.0916 73.7382 94.035 73.7382 92.7315C73.7382 91.428 74.7761 90.3713 76.0566 90.3713C77.337 90.3713 78.375 91.428 78.375 92.7315C78.375 94.035 77.337 95.0916 76.0566 95.0916Z" fill="#F2F2F2"/>
<path d="M22.7363 36.3658C21.4558 36.3658 20.4178 35.3091 20.4178 34.0057C20.4178 32.7022 21.4558 31.6455 22.7363 31.6455C24.0167 31.6455 25.0547 32.7022 25.0547 34.0057C25.0547 35.3091 24.0167 36.3658 22.7363 36.3658Z" fill="#F2F2F2"/>
</g>
<defs>
<filter id="filter0_d_3_983" x="80" y="-21" width="75" height="230" filterUnits="userSpaceOnUse" color-interpolation-filters="sRGB">
<feFlood flood-opacity="0" result="BackgroundImageFix"/>
<feColorMatrix in="SourceAlpha" type="matrix" values="0 0 0 0 0 0 0 0 0 0 0 0 0 0 0 0 0 0 127 0" result="hardAlpha"/>
<feOffset dy="-1"/>
<feGaussianBlur stdDeviation="10"/>
<feComposite in2="hardAlpha" operator="out"/>
<feColorMatrix type="matrix" values="0 0 0 0 0 0 0 0 0 0 0 0 0 0 0 0 0 0 0.5 0"/>
<feBlend mode="normal" in2="BackgroundImageFix" result="effect1_dropShadow_3_983"/>
<feBlend mode="normal" in="SourceGraphic" in2="effect1_dropShadow_3_983" result="shape"/>
</filter>
<filter id="filter1_d_3_983" x="62.2872" y="61.8564" width="75.4256" height="80.2872" filterUnits="userSpaceOnUse" color-interpolation-filters="sRGB">
<feFlood flood-opacity="0" result="BackgroundImageFix"/>
<feColorMatrix in="SourceAlpha" type="matrix" values="0 0 0 0 0 0 0 0 0 0 0 0 0 0 0 0 0 0 127 0" result="hardAlpha"/>
<feOffset dy="7"/>
<feGaussianBlur stdDeviation="5"/>
<feComposite in2="hardAlpha" operator="out"/>
<feColorMatrix type="matrix" values="0 0 0 0 0 0 0 0 0 0 0 0 0 0 0 0 0 0 0.1 0"/>
<feBlend mode="normal" in2="BackgroundImageFix" result="effect1_dropShadow_3_983"/>
<feBlend mode="normal" in="SourceGraphic" in2="effect1_dropShadow_3_983" result="shape"/>
</filter>
<filter id="filter2_i_3_983" x="21.7806" y="34.532" width="42.0944" height="52.9447" filterUnits="userSpaceOnUse" color-interpolation-filters="sRGB">
<feFlood flood-opacity="0" result="BackgroundImageFix"/>
<feBlend mode="normal" in="SourceGraphic" in2="BackgroundImageFix" result="shape"/>
<feColorMatrix in="SourceAlpha" type="matrix" values="0 0 0 0 0 0 0 0 0 0 0 0 0 0 0 0 0 0 127 0" result="hardAlpha"/>
<feOffset dx="2" dy="-1"/>
<feGaussianBlur stdDeviation="0.5"/>
<feComposite in2="hardAlpha" operator="arithmetic" k2="-1" k3="1"/>
<feColorMatrix type="matrix" values="0 0 0 0 0 0 0 0 0 0 0 0 0 0 0 0 0 0 0.03 0"/>
<feBlend mode="normal" in2="shape" result="effect1_innerShadow_3_983"/>
</filter>
<linearGradient id="paint0_linear_3_983" x1="176.733" y1="44.3796" x2="347.036" y2="149.605" gradientUnits="userSpaceOnUse">
<stop stop-color="#008EFA" stop-opacity="0.83"/>
<stop offset="1" stop-color="#008EFA" stop-opacity="0.68"/>
</linearGradient>
<linearGradient id="paint1_linear_3_983" x1="96.1023" y1="70.625" x2="120.023" y2="75.3757" gradientUnits="userSpaceOnUse">
<stop stop-color="#6A9AE0"/>
<stop offset="1" stop-color="#4DBCEB"/>
</linearGradient>
<radialGradient id="paint2_angular_3_983" cx="0" cy="0" r="1" gradientUnits="userSpaceOnUse" gradientTransform="translate(100 95) rotate(90) scale(32)">
<stop offset="0.136555" stop-color="#D260FA"/>
<stop offset="0.498871" stop-color="#488FD0"/>
<stop offset="0.868203" stop-color="#5078DF"/>
</radialGradient>
<clipPath id="clip0_3_983">
<path d="M100 20C100 8.95431 108.954 0 120 0H341V190H120C108.954 190 100 181.046 100 170V20Z" fill="white"/>
</clipPath>
<clipPath id="clip1_3_983">
<rect width="78" height="166" fill="white" transform="matrix(-1 0 0 1 89.5 12)"/>
</clipPath>
</defs>
</svg>
