<svg width="341" height="190" viewBox="0 0 341 190" fill="none" xmlns="http://www.w3.org/2000/svg">
<rect width="341" height="190" fill="white"/>
<ellipse cx="111.5" cy="95" rx="99.5" ry="95" fill="#46ADFB" fill-opacity="0.06"/>
<ellipse cx="131.5" cy="95" rx="99.5" ry="95" fill="#46ADFB" fill-opacity="0.06"/>
<ellipse cx="151.5" cy="95" rx="99.5" ry="95" fill="#46ADFB" fill-opacity="0.06"/>
<ellipse cx="171.5" cy="95" rx="99.5" ry="95" fill="#46ADFB" fill-opacity="0.06"/>
<ellipse cx="191.5" cy="95" rx="99.5" ry="95" fill="#46ADFB" fill-opacity="0.06"/>
<g clip-path="url(#clip0_3_983)">
<path d="M100 20C100 8.95431 108.954 0 120 0H341V190H120C108.954 190 100 181.046 100 170V20Z" fill="url(#paint0_linear_3_983)"/>
<g filter="url(#filter0_d_3_983)">
<path d="M100 0H107.964V0C106.54 13.9929 111.944 27.8003 119.374 39.7425C127.009 52.0132 135 70.1335 135 92.2263C135 115.314 126.273 135.715 118.346 149.485C111.25 161.811 106.524 175.851 107.964 190V190H100V0Z" fill="url(#paint1_linear_3_983)"/>
</g>
</g>
<g filter="url(#filter1_d_3_983)">
<path d="M94 66.4641C97.7128 64.3205 102.287 64.3205 106 66.4641L121.713 75.5359C125.426 77.6795 127.713 81.641 127.713 85.9282V104.072C127.713 108.359 125.426 112.321 121.713 114.464L106 123.536C102.287 125.679 97.7128 125.679 94 123.536L78.2872 114.464C74.5744 112.321 72.2872 108.359 72.2872 104.072V85.9282C72.2872 81.641 74.5744 77.6795 78.2872 75.5359L94 66.4641Z" fill="white"/>
</g>
<path d="M122.213 74.6699L106.5 65.5981C102.478 63.2759 97.5222 63.2759 93.5 65.5981L77.7872 74.6699C73.765 76.9921 71.2872 81.2838 71.2872 85.9282V104.072C71.2872 108.716 73.765 113.008 77.7872 115.33L93.5 124.402C97.5222 126.724 102.478 126.724 106.5 124.402L122.213 115.33C126.235 113.008 128.713 108.716 128.713 104.072V85.9282C128.713 81.2838 126.235 76.9921 122.213 74.6699Z" stroke="url(#paint2_angular_3_983)" stroke-width="2"/>
<g clip-path="url(#clip1_3_983)">
<path d="M32.1264 171.767L26.927 171.952L24.6178 151.513L33.9766 151.181L32.1264 171.767Z" fill="#FFB6B6"/>
<path d="M51.8146 170.06L46.133 169.383L47.6042 148.901L55.3516 149.827L51.8146 170.06Z" fill="#FFB6B6"/>
<path d="M64.6498 24.6677H94.875V25.094H64.6498V24.6677Z" fill="#F2F2F2"/>
<path d="M72.8488 24.989H73.2812V28.9321H72.8488V24.989Z" fill="#F2F2F2"/>
<path d="M86.0207 24.989H86.4531V28.9321H86.0207V24.989Z" fill="#F2F2F2"/>
<path d="M49.3138 45.1301H79.5391V45.5564H49.3138V45.1301Z" fill="#F2F2F2"/>
<path d="M70.9035 41.2926H71.3359V45.2357H70.9035V41.2926Z" fill="#F2F2F2"/>
<path d="M57.7394 41.2926H58.1719V45.2357H57.7394V41.2926Z" fill="#F2F2F2"/>
<path d="M9.15759 54.7211H39.3828V55.1474H9.15759V54.7211Z" fill="#F2F2F2"/>
<path d="M30.7472 50.8841H31.1797V54.8271H30.7472V50.8841Z" fill="#F2F2F2"/>
<path d="M17.5754 50.8841H18.0078V54.8271H17.5754V50.8841Z" fill="#F2F2F2"/>
<path d="M12.1732 153.615H42.3984V154.041H12.1732V153.615Z" fill="#F2F2F2"/>
<path d="M33.7707 149.781H34.2031V153.724H33.7707V149.781Z" fill="#F2F2F2"/>
<path d="M20.6066 149.781H21.0391V153.724H20.6066V149.781Z" fill="#F2F2F2"/>
<path d="M54.2826 136.566H84.5078V136.992H54.2826V136.566Z" fill="#F2F2F2"/>
<path d="M75.8722 132.729H76.3047V136.672H75.8722V132.729Z" fill="#F2F2F2"/>
<path d="M62.7082 132.729H63.1406V136.672H62.7082V132.729Z" fill="#F2F2F2"/>
<path d="M5.92321 121.006H36.1484V121.433H5.92321V121.006Z" fill="#F2F2F2"/>
<path d="M27.5129 117.172H27.9453V121.115H27.5129V117.172Z" fill="#F2F2F2"/>
<path d="M14.341 117.172H14.7734V121.115H14.341V117.172Z" fill="#F2F2F2"/>
<path d="M17.7021 176.975H62.4453V177.975H17.7021V176.975Z" fill="#E6E6E6"/>
<path d="M66.536 29.7238C66.536 29.7238 61.8953 37.9358 63.5736 39.605C65.2519 41.2742 54.9557 50.8345 54.9557 50.8345L45.3791 46.441L52.4906 38.1865C52.4906 38.1865 54.8175 29.1205 55.053 27.7759C55.2885 26.4314 66.536 29.7238 66.536 29.7238Z" fill="#FFB6B6"/>
<path opacity="0.1" d="M66.536 29.7238C66.536 29.7238 61.8953 37.9358 63.5736 39.605C65.2519 41.2742 54.9557 50.8345 54.9557 50.8345L45.3791 46.441L52.4906 38.1865C52.4906 38.1865 54.8175 29.1205 55.053 27.7759C55.2885 26.4314 66.536 29.7238 66.536 29.7238Z" fill="black"/>
<path d="M60.8484 93.414C60.8484 93.414 61.7696 104.783 60.8484 110.695C59.9271 116.607 58.5451 132.979 58.5451 132.979C58.5451 132.979 58.5451 163.903 53.478 164.357C48.411 164.812 44.7258 165.267 44.2652 163.448C43.8045 161.629 46.5684 160.719 45.1864 159.81C43.8045 158.9 43.3439 155.717 45.1864 152.079C47.029 148.441 45.1864 111.605 45.1864 111.605L36.4342 134.798C36.4342 134.798 35.5129 153.898 34.5916 156.626C33.6703 159.355 35.5129 164.357 32.2884 164.812C29.0639 165.267 25.3787 162.538 23.5362 161.629C21.6936 160.719 26.3 160.719 25.3787 160.265C24.4575 159.81 21.6936 158.445 22.6149 157.991C23.5362 157.536 24.4575 135.707 24.4575 135.707C24.4575 135.707 26.991 89.0937 30.2155 87.2747C33.44 85.4556 35.5129 88.5889 35.5129 88.5889L60.8484 93.414Z" fill="#0D60C1"/>
<path d="M53.083 167.746V170.162C53.083 170.162 57.7654 176.729 53.083 176.729C48.4006 176.729 44.7587 177.41 44.7587 176.504V168.35L53.083 167.746Z" fill="#474B50"/>
<path d="M24.1557 167.746V170.162C19.7855 172.36 16.1436 176.729 24.1557 176.729C29.3064 176.729 33.3125 177.41 33.3125 176.504V168.35L24.1557 167.746Z" fill="#474B50"/>
<path d="M59.0503 35.1432C54.5379 34.3777 51.5124 30.1453 52.2927 25.6899C53.0731 21.2344 57.3638 18.2431 61.8763 19.0085C66.3888 19.774 69.4143 24.0063 68.6339 28.4618C67.8535 32.9173 63.5628 35.9086 59.0503 35.1432Z" fill="#FFB6B6"/>
<path d="M60.3187 42.5122C60.3187 42.5122 56.8716 48.85 53.4758 46.8894L50.0799 44.9289L36.1891 86.8767C36.1891 86.8767 39.9263 94.8947 47.974 91.6448C56.0217 88.3949 60.3187 42.5122 60.3187 42.5122Z" fill="#235367"/>
<path d="M54.1954 40.16L52.9105 35.487C52.9105 35.487 39.8845 39.1393 37.7498 40.653C35.615 42.1667 35.1364 44.8992 35.1364 44.8992L36.3197 56.8237C36.3197 56.8237 31.0248 81.7179 30.8652 82.6288C30.7057 83.5396 26.6508 88.0102 29.2395 86.5736C31.8282 85.1369 32.6011 83.3922 33.9382 86.4327C35.2753 89.4732 38.8022 93.3541 38.8022 93.3541L54.1954 40.16Z" fill="#D7561F"/>
<path d="M33.2626 70.8441L32.5224 83.6406C32.5224 83.6406 40.0125 92.2952 37.9904 92.4137C35.9683 92.5322 35.3105 90.5746 35.3105 90.5746C35.3105 90.5746 31.3598 93.1349 29.7302 91.0125C28.1006 88.8901 26.2246 71.0348 26.2246 71.0348L33.2626 70.8441Z" fill="#FFB6B6"/>
<path d="M51.8366 33.3089C49.637 24.1774 51.2164 20.0476 51.6503 19.1562C52.0842 18.2648 52.7203 17.4549 53.522 16.7727C54.3238 16.0904 54.2756 15.5492 55.3232 15.18C56.3708 14.8108 57.4936 14.6208 58.6274 14.6208H59.1227C60.6864 13.5626 61.6256 12.9871 63.6235 12.9881C65.9771 12.9881 67.2343 13.7837 68.8985 15.1998C70.5628 16.6159 71.2857 17.9998 71 19.9998C70.2143 25.4998 71.4977 30.8599 71.4977 30.8599C65.76 30.7383 71.8912 32.1298 64.9399 33.7381C66.692 29.6084 68.4977 26.3274 64.3977 21.8498C64.3977 21.8498 58.1227 17.4345 54.4977 31.7619C54.2871 32.5943 51.8366 33.3089 51.8366 33.3089Z" fill="#B91D1D"/>
<path d="M58.5616 39.3019C58.5616 39.3019 62.7754 36.2951 64.0253 36.7351C65.2752 37.175 66.4791 40.6449 66.4791 40.6449C66.4791 40.6449 78.0145 46.382 75.8589 49.6583C74.7842 53.2081 66.3185 70.0082 66.3185 70.0082C66.3185 70.0082 58.6302 90.6303 61.7523 93.4925C64.8745 96.3547 43.6093 98.8123 43.6455 96.0193C43.6818 93.2263 47.5631 65.8937 49.5969 62.0401C51.6306 58.1864 58.5616 39.3019 58.5616 39.3019Z" fill="#D7561F"/>
<path d="M41.3906 43.9167L35.7779 42.9647C35.7779 42.9647 28.8753 59.3308 28.1074 61.0466C27.3395 62.7623 24.9402 71.1239 25.3941 71.2009C25.8481 71.2779 35.2405 71.0251 35.005 72.3696L41.3906 43.9167Z" fill="#D7561F"/>
<path d="M76.6143 70.8317L70.9966 74.9879C70.9966 74.9879 63.1832 84.7213 67.5718 87.2171C71.9604 89.7129 75.7842 77.7106 75.7842 77.7106L79.005 74.8163L76.6143 70.8317Z" fill="#FFB6B6"/>
<path d="M70.4483 46.1393L76.0309 48.6471L87.1091 70.2971C87.1091 70.2971 87.4587 76.7299 84.9918 76.7667C82.5249 76.8035 76.0367 78.8623 76.0367 78.8623C76.0367 78.8623 73.5834 74.173 72.5 73.7559L77.3066 69.9956L67.7889 55.7037L70.4483 46.1393Z" fill="#D7561F"/>
</g>
<defs>
<filter id="filter0_d_3_983" x="80" y="-21" width="75" height="230" filterUnits="userSpaceOnUse" color-interpolation-filters="sRGB">
<feFlood flood-opacity="0" result="BackgroundImageFix"/>
<feColorMatrix in="SourceAlpha" type="matrix" values="0 0 0 0 0 0 0 0 0 0 0 0 0 0 0 0 0 0 127 0" result="hardAlpha"/>
<feOffset dy="-1"/>
<feGaussianBlur stdDeviation="10"/>
<feComposite in2="hardAlpha" operator="out"/>
<feColorMatrix type="matrix" values="0 0 0 0 0 0 0 0 0 0 0 0 0 0 0 0 0 0 0.5 0"/>
<feBlend mode="normal" in2="BackgroundImageFix" result="effect1_dropShadow_3_983"/>
<feBlend mode="normal" in="SourceGraphic" in2="effect1_dropShadow_3_983" result="shape"/>
</filter>
<filter id="filter1_d_3_983" x="62.2872" y="61.8564" width="75.4256" height="80.2872" filterUnits="userSpaceOnUse" color-interpolation-filters="sRGB">
<feFlood flood-opacity="0" result="BackgroundImageFix"/>
<feColorMatrix in="SourceAlpha" type="matrix" values="0 0 0 0 0 0 0 0 0 0 0 0 0 0 0 0 0 0 127 0" result="hardAlpha"/>
<feOffset dy="7"/>
<feGaussianBlur stdDeviation="5"/>
<feComposite in2="hardAlpha" operator="out"/>
<feColorMatrix type="matrix" values="0 0 0 0 0 0 0 0 0 0 0 0 0 0 0 0 0 0 0.1 0"/>
<feBlend mode="normal" in2="BackgroundImageFix" result="effect1_dropShadow_3_983"/>
<feBlend mode="normal" in="SourceGraphic" in2="effect1_dropShadow_3_983" result="shape"/>
</filter>
<linearGradient id="paint0_linear_3_983" x1="176.733" y1="44.3796" x2="347.036" y2="149.605" gradientUnits="userSpaceOnUse">
<stop stop-color="#008EFA" stop-opacity="0.83"/>
<stop offset="1" stop-color="#008EFA" stop-opacity="0.68"/>
</linearGradient>
<linearGradient id="paint1_linear_3_983" x1="96.1023" y1="70.625" x2="120.023" y2="75.3757" gradientUnits="userSpaceOnUse">
<stop stop-color="#6A9AE0"/>
<stop offset="1" stop-color="#4DBCEB"/>
</linearGradient>
<radialGradient id="paint2_angular_3_983" cx="0" cy="0" r="1" gradientUnits="userSpaceOnUse" gradientTransform="translate(100 95) rotate(90) scale(32)">
<stop offset="0.136555" stop-color="#D260FA"/>
<stop offset="0.498871" stop-color="#488FD0"/>
<stop offset="0.868203" stop-color="#5078DF"/>
</radialGradient>
<clipPath id="clip0_3_983">
<path d="M100 20C100 8.95431 108.954 0 120 0H341V190H120C108.954 190 100 181.046 100 170V20Z" fill="white"/>
</clipPath>
<clipPath id="clip1_3_983">
<rect width="78" height="166" fill="white" transform="matrix(-1 0 0 1 89.5 12)"/>
</clipPath>
</defs>
</svg>
