<svg width="341" height="190" viewBox="0 0 341 190" fill="none" xmlns="http://www.w3.org/2000/svg">
<rect width="341" height="190" fill="white"/>
<ellipse cx="111.5" cy="95" rx="99.5" ry="95" fill="#46ADFB" fill-opacity="0.06"/>
<ellipse cx="131.5" cy="95" rx="99.5" ry="95" fill="#46ADFB" fill-opacity="0.06"/>
<ellipse cx="151.5" cy="95" rx="99.5" ry="95" fill="#46ADFB" fill-opacity="0.06"/>
<ellipse cx="171.5" cy="95" rx="99.5" ry="95" fill="#46ADFB" fill-opacity="0.06"/>
<ellipse cx="191.5" cy="95" rx="99.5" ry="95" fill="#46ADFB" fill-opacity="0.06"/>
<g clip-path="url(#clip0_1_896)">
<path d="M100 20C100 8.95431 108.954 0 120 0H341V190H120C108.954 190 100 181.046 100 170V20Z" fill="url(#paint0_linear_1_896)"/>
<g filter="url(#filter0_d_1_896)">
<path d="M100 0H107.964V0C106.54 13.9929 111.944 27.8003 119.374 39.7425C127.009 52.0132 135 70.1335 135 92.2263C135 115.314 126.273 135.715 118.346 149.485C111.25 161.811 106.524 175.851 107.964 190V190H100V0Z" fill="url(#paint1_linear_1_896)"/>
</g>
</g>
<g filter="url(#filter1_d_1_896)">
<path d="M94 66.4641C97.7128 64.3205 102.287 64.3205 106 66.4641L121.713 75.5359C125.426 77.6795 127.713 81.641 127.713 85.9282V104.072C127.713 108.359 125.426 112.321 121.713 114.464L106 123.536C102.287 125.679 97.7128 125.679 94 123.536L78.2872 114.464C74.5744 112.321 72.2872 108.359 72.2872 104.072V85.9282C72.2872 81.641 74.5744 77.6795 78.2872 75.5359L94 66.4641Z" fill="white"/>
</g>
<path d="M122.213 74.6699L106.5 65.5981C102.478 63.2759 97.5222 63.2759 93.5 65.5981L77.7872 74.6699C73.765 76.9921 71.2872 81.2838 71.2872 85.9282V104.072C71.2872 108.716 73.765 113.008 77.7872 115.33L93.5 124.402C97.5222 126.724 102.478 126.724 106.5 124.402L122.213 115.33C126.235 113.008 128.713 108.716 128.713 104.072V85.9282C128.713 81.2838 126.235 76.9921 122.213 74.6699Z" stroke="url(#paint2_angular_1_896)" stroke-width="2"/>
<g clip-path="url(#clip1_1_896)">
<path d="M85.8047 75.8734C85.2649 76.0108 84.7018 76.0255 84.1549 75.9164C83.608 75.8073 83.0907 75.577 82.6395 75.2419C82.1882 74.9067 81.8139 74.4748 81.543 73.9766C81.2721 73.4784 81.1112 72.9259 81.0715 72.3582L68.0015 68.7135L72.9066 64.5538L84.8698 68.1561C85.8072 68.155 86.7138 68.5054 87.4178 69.1408C88.1218 69.7762 88.5743 70.6526 88.6895 71.6039C88.8048 72.5551 88.5748 73.5152 88.0431 74.302C87.5114 75.0889 86.7149 75.648 85.8047 75.8734Z" fill="#FFB8B8"/>
<path d="M66.8073 169H14.1927C14.1416 169 14.0926 168.947 14.0564 168.854C14.0203 168.76 14 168.633 14 168.5C14 168.367 14.0203 168.24 14.0564 168.146C14.0926 168.053 14.1416 168 14.1927 168H66.8073C66.8584 168 66.9074 168.053 66.9435 168.146C66.9797 168.24 67 168.367 67 168.5C67 168.633 66.9797 168.76 66.9435 168.854C66.9074 168.947 66.8584 169 66.8073 169Z" fill="#E6E6E6"/>
<path d="M26.6359 138.535L22.8828 140.63L25.2712 148.663L29.024 149.012L31.0713 144.472L26.6359 138.535Z" fill="#9F616A"/>
<path d="M38.2422 154.604V158.445L44.0423 158.096L43.9615 154.932L38.2422 154.604Z" fill="#9F616A"/>
<path d="M25.2578 92.4382L27.3048 118.631L33.7874 157.046L44.0228 155.649L40.6111 125.266L41.9759 97.3277L25.2578 92.4382Z" fill="#2F2E41"/>
<path d="M52.5526 72.8806L27.9873 73.2298L25.2578 92.4377L41.9759 100.47L46.0701 115.836L25.2578 138.536L33.4463 149.013C33.4463 149.013 45.0466 132.949 53.5762 123.869C62.1058 114.789 58.0116 87.1992 58.0116 87.1992L52.5526 72.8806Z" fill="#2F2E41"/>
<path d="M25.2622 138.188C25.2622 138.188 20.4856 139.585 18.7797 139.934C17.0737 140.284 19.8032 146.919 19.8032 146.919C19.8032 146.919 21.5091 155.999 21.8503 157.745C22.1915 159.491 24.5798 165.428 27.6505 166.127C30.7211 166.825 28.674 153.904 28.674 153.904C28.674 153.904 30.0388 149.713 30.0388 148.316C30.0388 146.919 27.9917 147.618 27.9917 147.618C22.5327 146.919 25.2622 138.188 25.2622 138.188Z" fill="#2F2E41"/>
<path d="M36.5295 165.076C36.8707 167.172 36 167.87 41.6473 167.87C47.1062 168.569 45.7415 164.029 45.7415 164.029C45.5133 161.888 45.0556 159.78 44.3767 157.743C43.3532 154.949 37.8942 158.441 37.8942 158.441C37.8942 158.441 36.1883 162.981 36.5295 165.076Z" fill="#2F2E41"/>
<path d="M41.2876 33.3233C36.6657 33.3233 32.9189 29.509 32.9189 24.804C32.9189 20.0989 36.6657 16.2847 41.2876 16.2847C45.9095 16.2847 49.6562 20.0989 49.6562 24.804C49.6562 29.509 45.9095 33.3233 41.2876 33.3233Z" fill="#FFB8B8"/>
<path d="M35.2365 35.532L33.6 38.7251L22.2806 43.8619L25.256 73.1745L26.5083 76.21L25.8317 78.846L27.463 80.7914C25.8255 82.2997 25.6176 83.8786 26.5083 85.5118L31.7209 86.7273C31.7209 86.7273 60.7041 89.3509 58.2615 84.78C55.5927 79.7857 54.913 65.0359 60.8048 57.154C65.8068 50.4624 61.9666 41.7795 61.9666 41.7795L50.1017 38.1698L45.7376 35.532L35.2365 35.532Z" fill="#3F3D56"/>
<path d="M37.5696 12.3235C37.5303 12.2388 37.467 12.168 37.3879 12.1202C37.3087 12.0724 37.2173 12.0497 37.1255 12.0552C40.9568 11.8219 44.9924 12.2765 48.1977 14.4258C48.9742 14.9465 49.7063 15.5676 50.5513 15.9453C50.5912 15.9636 50.6258 15.992 50.6517 16.0279C50.6776 16.0637 50.6939 16.1058 50.6992 16.15C50.7044 16.1942 50.6983 16.239 50.6814 16.2801C50.6646 16.3212 50.6376 16.3571 50.6031 16.3844L50.5103 16.4585C50.4737 16.4878 50.4457 16.5267 50.4292 16.571C50.4128 16.6153 50.4086 16.6634 50.4172 16.7099C50.4257 16.7565 50.4467 16.7998 50.4777 16.8351C50.5087 16.8704 50.5486 16.8964 50.5931 16.9102C50.6395 16.9246 50.6809 16.9522 50.7125 16.9898C50.744 17.0273 50.7643 17.0732 50.771 17.1221C50.7777 17.171 50.7705 17.2209 50.7504 17.2658C50.7302 17.3107 50.6978 17.3488 50.6571 17.3756L49.9458 17.8436C49.91 17.8667 49.8805 17.8987 49.8599 17.9365C49.8394 17.9743 49.8285 18.0167 49.8283 18.0599C49.828 18.1031 49.8385 18.1457 49.8586 18.1837C49.8787 18.2217 49.9079 18.254 49.9435 18.2775C50.0038 18.3154 50.067 18.3481 50.1326 18.3751C50.1735 18.3908 50.2097 18.4168 50.2377 18.4508C50.2658 18.4848 50.2848 18.5256 50.2929 18.5692C50.301 18.6128 50.2979 18.6579 50.2839 18.6999C50.2699 18.742 50.2455 18.7797 50.2131 18.8094C49.9051 19.0885 49.6689 19.4401 49.525 19.8335C49.2879 20.461 49.2453 21.1443 49.2053 21.8154C48.9602 20.8471 47.9222 20.2772 46.9417 20.2193C45.9611 20.1613 45.0049 20.4907 44.0506 20.7275C41.9722 21.2416 39.8136 21.3262 37.7025 20.9761C38.4193 22.4406 37.8146 24.1874 37.2061 25.7019L35.2364 24.8424C32.5312 23.2879 34.4156 29.8637 35.4269 30.7664C33.3619 31.4952 27.9571 23.4064 29.6959 20.3381C30.6003 18.742 29.9583 16.6835 31.7365 15.1697C32.608 14.2358 34.348 14.6509 35.2364 13.8747C35.5861 13.5691 35.0531 12.7518 35.5337 12.5737C35.6933 12.5145 37.5432 12.2639 37.5696 12.3235Z" fill="#2F2E41"/>
<path d="M51.7327 38.9944C53.2683 45.9346 55.5041 67.1108 59.5 70.4998C60 70.9238 62.1051 71.2261 63.5 71.4998C65.3356 71.8598 66.1378 71.8226 68 71.9998C71.6126 72.3435 77 73.4998 77 73.4998C77 73.4998 80.5 70.8606 81.5 66.4998C81.5 66.4998 67.7672 62.5995 66.2516 61.5668C64.736 60.5342 62.5707 42.3819 62.5707 42.3819L61.5969 41.4573L61.5915 41.4517L51.7327 38.9944Z" fill="#3F3D56"/>
<path d="M21.7912 103.084C21.389 102.69 21.0765 102.212 20.8756 101.682C20.6748 101.152 20.5905 100.584 20.6287 100.017C20.6669 99.4506 20.8267 98.8994 21.0967 98.4025C21.3668 97.9055 21.7407 97.4749 22.1919 97.141L18.2544 83.9307L25.0104 85.971L27.7137 98.2029C28.2146 99.0118 28.4065 99.9797 28.2532 100.923C28.1 101.866 27.6121 102.72 26.882 103.321C26.152 103.923 25.2306 104.231 24.2923 104.187C23.354 104.144 22.4641 103.751 21.7912 103.084V103.084Z" fill="#FFB8B8"/>
<path d="M25.3996 43.1228L22.2788 43.8618C22.2788 43.8618 9.37964 69.4109 12.488 74.2791C15.5964 79.1473 19.4043 95.2645 19.4043 95.2645C19.4043 95.2645 25.0365 94.1247 27.1884 91.2038L23.2477 72.0884L27.3125 56.0235L25.3996 43.1228Z" fill="#3F3D56"/>
<path d="M68.0956 27.203C66.8152 27.203 65.7772 26.1463 65.7772 24.8428C65.7772 23.5393 66.8152 22.4827 68.0956 22.4827C69.3761 22.4827 70.4141 23.5393 70.4141 24.8428C70.4141 26.1463 69.3761 27.203 68.0956 27.203Z" fill="#F2F2F2"/>
<path d="M76.5566 95.0916C75.2761 95.0916 74.2382 94.035 74.2382 92.7315C74.2382 91.428 75.2761 90.3713 76.5566 90.3713C77.837 90.3713 78.875 91.428 78.875 92.7315C78.875 94.035 77.837 95.0916 76.5566 95.0916Z" fill="#F2F2F2"/>
<path d="M23.2363 36.3658C21.9558 36.3658 20.9178 35.3091 20.9178 34.0057C20.9178 32.7022 21.9558 31.6455 23.2363 31.6455C24.5167 31.6455 25.5547 32.7022 25.5547 34.0057C25.5547 35.3091 24.5167 36.3658 23.2363 36.3658Z" fill="#F2F2F2"/>
</g>
<defs>
<filter id="filter0_d_1_896" x="80" y="-21" width="75" height="230" filterUnits="userSpaceOnUse" color-interpolation-filters="sRGB">
<feFlood flood-opacity="0" result="BackgroundImageFix"/>
<feColorMatrix in="SourceAlpha" type="matrix" values="0 0 0 0 0 0 0 0 0 0 0 0 0 0 0 0 0 0 127 0" result="hardAlpha"/>
<feOffset dy="-1"/>
<feGaussianBlur stdDeviation="10"/>
<feComposite in2="hardAlpha" operator="out"/>
<feColorMatrix type="matrix" values="0 0 0 0 0 0 0 0 0 0 0 0 0 0 0 0 0 0 0.5 0"/>
<feBlend mode="normal" in2="BackgroundImageFix" result="effect1_dropShadow_1_896"/>
<feBlend mode="normal" in="SourceGraphic" in2="effect1_dropShadow_1_896" result="shape"/>
</filter>
<filter id="filter1_d_1_896" x="62.2872" y="61.8564" width="75.4256" height="80.2872" filterUnits="userSpaceOnUse" color-interpolation-filters="sRGB">
<feFlood flood-opacity="0" result="BackgroundImageFix"/>
<feColorMatrix in="SourceAlpha" type="matrix" values="0 0 0 0 0 0 0 0 0 0 0 0 0 0 0 0 0 0 127 0" result="hardAlpha"/>
<feOffset dy="7"/>
<feGaussianBlur stdDeviation="5"/>
<feComposite in2="hardAlpha" operator="out"/>
<feColorMatrix type="matrix" values="0 0 0 0 0 0 0 0 0 0 0 0 0 0 0 0 0 0 0.1 0"/>
<feBlend mode="normal" in2="BackgroundImageFix" result="effect1_dropShadow_1_896"/>
<feBlend mode="normal" in="SourceGraphic" in2="effect1_dropShadow_1_896" result="shape"/>
</filter>
<linearGradient id="paint0_linear_1_896" x1="176.733" y1="44.3796" x2="347.036" y2="149.605" gradientUnits="userSpaceOnUse">
<stop stop-color="#008EFA" stop-opacity="0.83"/>
<stop offset="1" stop-color="#008EFA" stop-opacity="0.68"/>
</linearGradient>
<linearGradient id="paint1_linear_1_896" x1="96.1023" y1="70.625" x2="120.023" y2="75.3757" gradientUnits="userSpaceOnUse">
<stop stop-color="#6A9AE0"/>
<stop offset="1" stop-color="#4DBCEB"/>
</linearGradient>
<radialGradient id="paint2_angular_1_896" cx="0" cy="0" r="1" gradientUnits="userSpaceOnUse" gradientTransform="translate(100 95) rotate(90) scale(32)">
<stop offset="0.136555" stop-color="#D260FA"/>
<stop offset="0.498871" stop-color="#488FD0"/>
<stop offset="0.868203" stop-color="#5078DF"/>
</radialGradient>
<clipPath id="clip0_1_896">
<path d="M100 20C100 8.95431 108.954 0 120 0H341V190H120C108.954 190 100 181.046 100 170V20Z" fill="white"/>
</clipPath>
<clipPath id="clip1_1_896">
<rect width="78" height="166" fill="white" transform="matrix(-1 0 0 1 90 12)"/>
</clipPath>
</defs>
</svg>
